<svg width="72" height="72" viewBox="0 0 72 72" fill="none" xmlns="http://www.w3.org/2000/svg">
<rect width="72" height="72" rx="13" fill="#191919"/>
<path d="M36 49.3332C34.1778 49.3332 32.4556 48.9829 30.8333 48.2825C29.2111 47.5821 27.7942 46.6265 26.5827 45.4158C25.372 44.2052 24.4165 42.7887 23.716 41.1665C23.0156 39.5443 22.6658 37.8221 22.6667 35.9998C22.6667 34.1554 23.0169 32.4274 23.7173 30.8158C24.4178 29.2043 25.3733 27.7936 26.584 26.5838C27.7947 25.3723 29.2107 24.4167 30.832 23.7172C32.4533 23.0176 34.176 22.6674 36 22.6665C37.8445 22.6665 39.5725 23.0167 41.184 23.7172C42.7956 24.4176 44.2062 25.3732 45.416 26.5838C46.6276 27.7945 47.5831 29.2056 48.2827 30.8172C48.9822 32.4287 49.3325 34.1563 49.3333 35.9998V37.9332C49.3333 39.2443 48.8836 40.3612 47.984 41.2838C47.0845 42.2065 45.9787 42.6674 44.6667 42.6665C43.8667 42.6665 43.1222 42.4887 42.4333 42.1332C41.7445 41.7776 41.1778 41.3109 40.7333 40.7332C40.1333 41.3332 39.4276 41.8056 38.616 42.1505C37.8045 42.4954 36.9325 42.6674 36 42.6665C34.1556 42.6665 32.5831 42.0163 31.2827 40.7158C29.9822 39.4154 29.3325 37.8434 29.3333 35.9998C29.3333 34.1554 29.9836 32.5829 31.284 31.2825C32.5845 29.9821 34.1565 29.3323 36 29.3332C37.8445 29.3332 39.4169 29.9834 40.7173 31.2838C42.0178 32.5843 42.6676 34.1563 42.6667 35.9998V37.9332C42.6667 38.5776 42.8667 39.0829 43.2667 39.4492C43.6667 39.8154 44.1333 39.9989 44.6667 39.9998C45.2 39.9998 45.6667 39.8163 46.0667 39.4492C46.4667 39.0821 46.6667 38.5767 46.6667 37.9332V35.9998C46.6667 33.0887 45.6165 30.5829 43.516 28.4825C41.4156 26.3821 38.9102 25.3323 36 25.3332C33.0889 25.3332 30.5831 26.3834 28.4827 28.4838C26.3822 30.5843 25.3325 33.0896 25.3333 35.9998C25.3333 38.9109 26.3836 41.4167 28.484 43.5172C30.5845 45.6176 33.0898 46.6674 36 46.6665H42.6667V49.3332H36ZM36 39.9998C37.1111 39.9998 38.0556 39.6109 38.8333 38.8332C39.6111 38.0554 40 37.1109 40 35.9998C40 34.8887 39.6111 33.9443 38.8333 33.1665C38.0556 32.3887 37.1111 31.9998 36 31.9998C34.8889 31.9998 33.9445 32.3887 33.1667 33.1665C32.3889 33.9443 32 34.8887 32 35.9998C32 37.1109 32.3889 38.0554 33.1667 38.8332C33.9445 39.6109 34.8889 39.9998 36 39.9998Z" fill="#F75708"/>
</svg>
