<svg width="40" height="40" viewBox="0 0 40 40" fill="none" xmlns="http://www.w3.org/2000/svg">
<g clip-path="url(#clip0_1553_1182)">
<path d="M30 0H10C4.47715 0 0 4.47715 0 10V30C0 35.5228 4.47715 40 10 40H30C35.5228 40 40 35.5228 40 30V10C40 4.47715 35.5228 0 30 0Z" fill="white"/>
<path opacity="0.3" d="M31.1109 31.5663L30.077 26.0895H27.6254C27.3956 27.6824 25.3089 28.9016 24.7908 28.9016C22.5307 28.9016 20.9906 27.973 20.9906 22.8609C20.9906 17.7489 21.6722 17.3153 24.0022 17.3153C26.3323 17.3153 27.319 18.4827 27.6254 20.3719H30.077L31.3411 14.4819C29.9238 13.4077 27.5105 12 23.9864 12C18.0106 12 11.0078 14.5013 11.0078 22.2434C11.0078 31.8429 15.968 35.3253 24.0022 34.8219C27.6254 34.5949 29.5163 33.0564 31.1109 31.5663Z" fill="#989898"/>
<path d="M26.175 28.1768L25.0449 23.0248H22.8531C22.6477 24.4008 21.8258 25.6168 20.3532 25.6168C18.3327 25.6168 17.2369 24.5608 17.2369 20.1448C17.2369 15.7288 18.367 14.6728 20.319 14.6728C21.6545 14.6728 22.5792 15.5688 22.8531 17.2008H25.0449L26.175 12.1128C24.9079 11.1848 22.7504 9.96875 19.5998 9.96875C14.2575 9.96875 10.8672 13.4568 10.8672 20.1448C10.8672 27.4088 14.6684 30.3208 19.5998 30.3208C22.3052 30.3208 24.4969 29.4248 26.175 28.1768Z" fill="#989898"/>
</g>
<defs>
<clipPath id="clip0_1553_1182">
<rect width="40" height="40" fill="white"/>
</clipPath>
</defs>
</svg>
