<svg width="72" height="72" viewBox="0 0 72 72" fill="none" xmlns="http://www.w3.org/2000/svg">
<rect width="72" height="72" rx="13" fill="#F75708"/>
<path d="M36 35.3332C35.1159 35.3332 34.2681 34.982 33.643 34.3569C33.0179 33.7317 32.6667 32.8839 32.6667 31.9998C32.6667 31.1158 33.0179 30.2679 33.643 29.6428C34.2681 29.0177 35.1159 28.6665 36 28.6665C36.8841 28.6665 37.7319 29.0177 38.357 29.6428C38.9821 30.2679 39.3333 31.1158 39.3333 31.9998C39.3333 32.4376 39.2471 32.871 39.0796 33.2754C38.9121 33.6799 38.6666 34.0473 38.357 34.3569C38.0475 34.6664 37.68 34.9119 37.2756 35.0794C36.8712 35.247 36.4377 35.3332 36 35.3332ZM36 22.6665C33.5247 22.6665 31.1507 23.6498 29.4003 25.4002C27.65 27.1505 26.6667 29.5245 26.6667 31.9998C26.6667 38.9998 36 49.3332 36 49.3332C36 49.3332 45.3333 38.9998 45.3333 31.9998C45.3333 29.5245 44.35 27.1505 42.5997 25.4002C40.8493 23.6498 38.4754 22.6665 36 22.6665Z" fill="white"/>
</svg>
