<svg width="107" height="67" viewBox="0 0 107 67" fill="none" xmlns="http://www.w3.org/2000/svg">
<line x1="8.00037" y1="65.5" x2="104.879" y2="65.5" stroke="#101010" stroke-width="3" stroke-linecap="round" stroke-linejoin="round"/>
<line x1="8.00037" y1="65.5" x2="70.9202" y2="65.5" stroke="#FE6847" stroke-width="3" stroke-linecap="round" stroke-linejoin="round"/>
<path d="M46.0863 10.485C47.393 10.485 48.345 10.751 48.9423 11.283C49.5396 11.8056 49.8383 12.5383 49.8383 13.481C49.8383 13.901 49.7683 14.3023 49.6283 14.685C49.4976 15.0676 49.2783 15.413 48.9703 15.721C48.6623 16.0196 48.2516 16.2576 47.7383 16.435C47.2343 16.603 46.6136 16.687 45.8763 16.687H44.7983V20.481H43.2863V10.485H46.0863ZM45.9743 11.759H44.7983V15.413H45.7083C46.2776 15.413 46.7536 15.3523 47.1363 15.231C47.519 15.1003 47.8036 14.8996 47.9903 14.629C48.1863 14.349 48.2843 13.985 48.2843 13.537C48.2843 12.9396 48.0976 12.4963 47.7243 12.207C47.3603 11.9083 46.777 11.759 45.9743 11.759ZM54.6166 12.795C55.5686 12.795 56.2779 13.005 56.7446 13.425C57.2112 13.8356 57.4446 14.4843 57.4446 15.371V20.481H56.3946L56.1006 19.431H56.0446C55.8299 19.7016 55.6059 19.9256 55.3726 20.103C55.1486 20.2803 54.8872 20.411 54.5886 20.495C54.2992 20.579 53.9446 20.621 53.5246 20.621C53.0766 20.621 52.6706 20.5416 52.3066 20.383C51.9519 20.215 51.6719 19.963 51.4666 19.627C51.2612 19.2816 51.1586 18.8523 51.1586 18.339C51.1586 17.5736 51.4479 16.9903 52.0266 16.589C52.6146 16.1876 53.5059 15.9683 54.7006 15.931L55.9886 15.889V15.469C55.9886 14.909 55.8626 14.517 55.6106 14.293C55.3586 14.069 55.0039 13.957 54.5466 13.957C54.1546 13.957 53.7812 14.013 53.4266 14.125C53.0719 14.237 52.7359 14.3723 52.4186 14.531L51.9426 13.453C52.2972 13.2663 52.7032 13.1123 53.1606 12.991C53.6272 12.8603 54.1126 12.795 54.6166 12.795ZM54.9666 16.883C54.1079 16.9203 53.5106 17.065 53.1746 17.317C52.8479 17.5596 52.6846 17.905 52.6846 18.353C52.6846 18.745 52.8012 19.0296 53.0346 19.207C53.2772 19.3843 53.5806 19.473 53.9446 19.473C54.5326 19.473 55.0179 19.3096 55.4006 18.983C55.7832 18.6563 55.9746 18.1663 55.9746 17.513V16.855L54.9666 16.883ZM58.5816 12.935H60.1776L61.7456 17.219C61.8296 17.4336 61.9043 17.6436 61.9696 17.849C62.035 18.0543 62.091 18.2596 62.1376 18.465C62.1936 18.661 62.2356 18.857 62.2636 19.053H62.3196C62.3663 18.8103 62.441 18.5256 62.5436 18.199C62.6463 17.863 62.7536 17.5316 62.8656 17.205L64.3496 12.935H65.9456L62.7116 21.503C62.5343 21.9883 62.315 22.4036 62.0536 22.749C61.7923 23.1036 61.4796 23.3743 61.1156 23.561C60.761 23.7476 60.341 23.841 59.8556 23.841C59.6223 23.841 59.4216 23.827 59.2536 23.799C59.0856 23.7803 58.941 23.757 58.8196 23.729V22.553C58.9223 22.5716 59.0436 22.5903 59.1836 22.609C59.333 22.6276 59.487 22.637 59.6456 22.637C59.935 22.637 60.1823 22.581 60.3876 22.469C60.6023 22.357 60.7796 22.1983 60.9196 21.993C61.069 21.7876 61.195 21.5543 61.2976 21.293L61.6056 20.481L58.5816 12.935ZM73.7624 16.701C73.7624 17.3263 73.6784 17.8816 73.5104 18.367C73.3424 18.8523 73.1044 19.263 72.7964 19.599C72.4884 19.935 72.1151 20.1916 71.6764 20.369C71.2378 20.537 70.7431 20.621 70.1924 20.621C69.6884 20.621 69.2218 20.537 68.7924 20.369C68.3631 20.1916 67.9898 19.935 67.6724 19.599C67.3644 19.263 67.1218 18.8523 66.9444 18.367C66.7671 17.8816 66.6784 17.3216 66.6784 16.687C66.6784 15.8563 66.8184 15.1516 67.0984 14.573C67.3878 13.9943 67.7984 13.5556 68.3304 13.257C68.8718 12.949 69.5064 12.795 70.2344 12.795C70.9251 12.795 71.5318 12.949 72.0544 13.257C72.5864 13.5556 73.0018 13.9943 73.3004 14.573C73.6084 15.1516 73.7624 15.861 73.7624 16.701ZM68.2044 16.701C68.2044 17.261 68.2744 17.7463 68.4144 18.157C68.5544 18.5583 68.7738 18.8663 69.0724 19.081C69.3711 19.2956 69.7538 19.403 70.2204 19.403C70.6871 19.403 71.0698 19.2956 71.3684 19.081C71.6671 18.8663 71.8864 18.5583 72.0264 18.157C72.1664 17.7463 72.2364 17.261 72.2364 16.701C72.2364 16.1223 72.1618 15.637 72.0124 15.245C71.8724 14.853 71.6531 14.5543 71.3544 14.349C71.0651 14.1343 70.6824 14.027 70.2064 14.027C69.5064 14.027 68.9978 14.2603 68.6804 14.727C68.3631 15.1936 68.2044 15.8516 68.2044 16.701ZM82.1397 12.935V20.481H80.9497L80.7397 19.487H80.6697C80.511 19.7483 80.3057 19.963 80.0537 20.131C79.8017 20.299 79.5264 20.4203 79.2277 20.495C78.929 20.579 78.621 20.621 78.3037 20.621C77.7157 20.621 77.2164 20.5276 76.8057 20.341C76.4044 20.145 76.0964 19.8463 75.8817 19.445C75.6764 19.0343 75.5737 18.5116 75.5737 17.877V12.935H77.0717V17.653C77.0717 18.241 77.193 18.6796 77.4357 18.969C77.6877 19.2583 78.075 19.403 78.5977 19.403C79.1204 19.403 79.531 19.3003 79.8297 19.095C80.1284 18.8896 80.3384 18.591 80.4597 18.199C80.5904 17.7976 80.6557 17.317 80.6557 16.757V12.935H82.1397ZM87.178 19.417C87.374 19.417 87.5747 19.3983 87.78 19.361C87.9854 19.3236 88.1627 19.2816 88.312 19.235V20.355C88.1534 20.4296 87.9387 20.4903 87.668 20.537C87.3974 20.593 87.1267 20.621 86.856 20.621C86.4454 20.621 86.0674 20.551 85.722 20.411C85.386 20.271 85.1154 20.0283 84.91 19.683C84.7047 19.3376 84.602 18.857 84.602 18.241V14.069H83.552V13.397L84.658 12.837L85.176 11.241H86.086V12.935H88.242V14.069H86.086V18.213C86.086 18.6236 86.184 18.927 86.38 19.123C86.5854 19.319 86.8514 19.417 87.178 19.417Z" fill="#191919"/>
<path d="M15.2021 42.0244C15.2021 42.6162 15.0791 43.1289 14.833 43.5625C14.5869 43.9961 14.2529 44.3506 13.8311 44.626C13.415 44.9014 12.9463 45.1035 12.4248 45.2324V45.2852C13.4561 45.4141 14.2383 45.7305 14.7715 46.2344C15.3105 46.7383 15.5801 47.4121 15.5801 48.2559C15.5801 49.0059 15.3955 49.6768 15.0264 50.2686C14.6631 50.8604 14.1006 51.3262 13.3389 51.666C12.5771 52.0059 11.5957 52.1758 10.3945 52.1758C9.68555 52.1758 9.02344 52.1172 8.4082 52C7.79883 51.8887 7.22461 51.7158 6.68555 51.4814V49.1699C7.23633 49.4512 7.81348 49.665 8.41699 49.8115C9.02051 49.9521 9.58301 50.0225 10.1045 50.0225C11.0771 50.0225 11.7568 49.8555 12.1436 49.5215C12.5361 49.1816 12.7324 48.707 12.7324 48.0977C12.7324 47.7402 12.6416 47.4385 12.46 47.1924C12.2783 46.9463 11.9619 46.7588 11.5107 46.6299C11.0654 46.501 10.4414 46.4365 9.63867 46.4365H8.66309V44.3535H9.65625C10.4473 44.3535 11.0479 44.2803 11.458 44.1338C11.874 43.9814 12.1553 43.7764 12.3018 43.5186C12.4541 43.2549 12.5303 42.9561 12.5303 42.6221C12.5303 42.165 12.3896 41.8076 12.1084 41.5498C11.8271 41.292 11.3584 41.1631 10.7021 41.1631C10.292 41.1631 9.91699 41.2158 9.57715 41.3213C9.24316 41.4209 8.94141 41.5439 8.67188 41.6904C8.40234 41.8311 8.16504 41.9687 7.95996 42.1035L6.70313 40.2314C7.20703 39.8682 7.7959 39.5664 8.46973 39.3262C9.14941 39.0859 9.95801 38.9658 10.8955 38.9658C12.2197 38.9658 13.2686 39.2324 14.042 39.7656C14.8154 40.2988 15.2021 41.0518 15.2021 42.0244ZM26.0039 52H17.0215V50.1104L20.2471 46.8496C20.8975 46.1816 21.4189 45.625 21.8115 45.1797C22.21 44.7285 22.4971 44.3184 22.6729 43.9492C22.8545 43.5801 22.9453 43.1846 22.9453 42.7627C22.9453 42.2529 22.8018 41.8721 22.5147 41.6201C22.2334 41.3623 21.8555 41.2334 21.3809 41.2334C20.8828 41.2334 20.3994 41.3477 19.9307 41.5762C19.4619 41.8047 18.9727 42.1299 18.4629 42.5518L16.9863 40.8027C17.3555 40.4863 17.7451 40.1875 18.1553 39.9062C18.5713 39.625 19.0518 39.3994 19.5967 39.2295C20.1475 39.0537 20.8066 38.9658 21.5742 38.9658C22.418 38.9658 23.1416 39.1182 23.7451 39.4229C24.3545 39.7275 24.8232 40.1436 25.1514 40.6709C25.4795 41.1924 25.6436 41.7842 25.6436 42.4463C25.6436 43.1553 25.5029 43.8027 25.2217 44.3887C24.9404 44.9746 24.5303 45.5547 23.9912 46.1289C23.458 46.7031 22.8135 47.3389 22.0576 48.0361L20.4053 49.5918V49.7148H26.0039V52ZM30.5039 49.9082L30.6357 50.1104C30.5303 50.5322 30.3926 50.9863 30.2227 51.4727C30.0586 51.959 29.877 52.4453 29.6777 52.9316C29.4844 53.418 29.2881 53.8809 29.0889 54.3203H27.1553C27.2725 53.8457 27.3867 53.3477 27.498 52.8262C27.6094 52.3047 27.7119 51.792 27.8057 51.2881C27.9053 50.7842 27.9844 50.3242 28.043 49.9082H30.5039ZM41.3848 44.6348C41.3848 45.373 41.3291 46.1055 41.2178 46.832C41.1123 47.5586 40.9248 48.2441 40.6553 48.8887C40.3857 49.5273 40.0078 50.0957 39.5215 50.5937C39.0352 51.0859 38.417 51.4727 37.667 51.7539C36.917 52.0352 36.0088 52.1758 34.9424 52.1758C34.6904 52.1758 34.3945 52.1641 34.0547 52.1406C33.7148 52.123 33.4336 52.0938 33.2109 52.0527V49.873C33.4453 49.9316 33.6943 49.9785 33.958 50.0137C34.2217 50.043 34.4883 50.0576 34.7578 50.0576C35.8301 50.0576 36.6563 49.8877 37.2363 49.5479C37.8223 49.208 38.2324 48.7363 38.4668 48.1328C38.707 47.5293 38.8447 46.832 38.8799 46.041H38.7744C38.6045 46.3223 38.4023 46.5771 38.168 46.8057C37.9395 47.0283 37.6465 47.207 37.2891 47.3418C36.9316 47.4707 36.4775 47.5352 35.9268 47.5352C35.1943 47.5352 34.5557 47.377 34.0107 47.0605C33.4717 46.7383 33.0527 46.2754 32.7539 45.6719C32.4609 45.0625 32.3145 44.3271 32.3145 43.4658C32.3145 42.5342 32.4902 41.7373 32.8418 41.0752C33.1992 40.4072 33.7061 39.8945 34.3623 39.5371C35.0186 39.1797 35.792 39.001 36.6826 39.001C37.3389 39.001 37.9512 39.1152 38.5195 39.3437C39.0879 39.5664 39.5859 39.9092 40.0137 40.3721C40.4473 40.835 40.7842 41.4209 41.0244 42.1299C41.2647 42.8389 41.3848 43.6738 41.3848 44.6348ZM36.7354 41.1807C36.208 41.1807 35.7773 41.3623 35.4434 41.7256C35.1094 42.0889 34.9424 42.6572 34.9424 43.4307C34.9424 44.0518 35.0859 44.5439 35.373 44.9072C35.6602 45.2705 36.0967 45.4521 36.6826 45.4521C37.0869 45.4521 37.4385 45.3643 37.7373 45.1885C38.0361 45.0068 38.2676 44.7812 38.4316 44.5117C38.6016 44.2363 38.6865 43.9551 38.6865 43.668C38.6865 43.3691 38.6455 43.0732 38.5635 42.7803C38.4814 42.4873 38.3584 42.2207 38.1943 41.9805C38.0303 41.7402 37.8252 41.5469 37.5791 41.4004C37.3389 41.2539 37.0576 41.1807 36.7354 41.1807ZM47.1856 38.9834C47.9238 38.9834 48.6035 39.0977 49.2246 39.3262C49.8516 39.5547 50.3525 39.9004 50.7275 40.3633C51.1025 40.8203 51.29 41.3945 51.29 42.0859C51.29 42.6016 51.1875 43.0527 50.9824 43.4395C50.7832 43.8262 50.5107 44.166 50.165 44.459C49.8193 44.7461 49.4268 44.998 48.9873 45.2148C49.4443 45.4551 49.8779 45.7363 50.2881 46.0586C50.6982 46.375 51.0322 46.7471 51.29 47.1748C51.5537 47.6025 51.6856 48.1006 51.6856 48.6689C51.6856 49.3838 51.4951 50.0049 51.1143 50.5322C50.7334 51.0537 50.2061 51.458 49.5322 51.7451C48.8584 52.0322 48.0762 52.1758 47.1856 52.1758C46.2246 52.1758 45.4072 52.0381 44.7334 51.7627C44.0596 51.4873 43.5469 51.0947 43.1953 50.585C42.8438 50.0693 42.668 49.4541 42.668 48.7393C42.668 48.1533 42.7764 47.6436 42.9932 47.21C43.2158 46.7764 43.5147 46.4043 43.8897 46.0937C44.2647 45.7773 44.6777 45.5078 45.1289 45.2852C44.7481 45.0449 44.3994 44.7725 44.083 44.4678C43.7725 44.1631 43.5234 43.8145 43.3359 43.4219C43.1543 43.0293 43.0635 42.5781 43.0635 42.0684C43.0635 41.3887 43.2539 40.8203 43.6348 40.3633C44.0215 39.9062 44.5283 39.5635 45.1553 39.335C45.7822 39.1006 46.459 38.9834 47.1856 38.9834ZM45.1816 48.5811C45.1816 49.0439 45.3457 49.4277 45.6738 49.7324C46.0078 50.0312 46.5 50.1807 47.1504 50.1807C47.8242 50.1807 48.3281 50.0371 48.6621 49.75C48.9961 49.457 49.1631 49.0732 49.1631 48.5986C49.1631 48.2705 49.0664 47.9834 48.8731 47.7373C48.6856 47.4912 48.4482 47.2715 48.1611 47.0781C47.874 46.8789 47.584 46.6943 47.291 46.5244L47.0537 46.4014C46.6787 46.5713 46.3506 46.7617 46.0693 46.9727C45.7939 47.1836 45.5772 47.4209 45.4189 47.6846C45.2607 47.9482 45.1816 48.2471 45.1816 48.5811ZM47.168 40.9697C46.7227 40.9697 46.3535 41.084 46.0606 41.3125C45.7676 41.541 45.6211 41.8633 45.6211 42.2793C45.6211 42.5723 45.6914 42.8301 45.832 43.0527C45.9785 43.2695 46.1689 43.46 46.4033 43.624C46.6436 43.7881 46.9043 43.9404 47.1856 44.0811C47.4551 43.9521 47.707 43.8086 47.9414 43.6504C48.1758 43.4922 48.3662 43.3018 48.5127 43.0791C48.6592 42.8564 48.7324 42.5898 48.7324 42.2793C48.7324 41.8633 48.583 41.541 48.2842 41.3125C47.9912 41.084 47.6191 40.9697 47.168 40.9697ZM62.3291 49.3369H60.7822V52H58.1279V49.3369H52.6436V47.4473L58.2773 39.1504H60.7822V47.2275H62.3291V49.3369ZM58.1279 47.2275V45.0479C58.1279 44.8428 58.1309 44.5996 58.1367 44.3184C58.1484 44.0371 58.1602 43.7559 58.1719 43.4746C58.1836 43.1934 58.1953 42.9443 58.207 42.7275C58.2246 42.5049 58.2363 42.3496 58.2422 42.2617H58.1719C58.0606 42.502 57.9434 42.7363 57.8203 42.9648C57.6973 43.1875 57.5537 43.4219 57.3897 43.668L55.0342 47.2275H58.1279ZM67.1895 53.0459V51.2793C66.4102 51.2617 65.7129 51.1885 65.0977 51.0596C64.4883 50.9248 63.9316 50.7461 63.4277 50.5234V48.2031C63.9258 48.4434 64.5205 48.6631 65.2119 48.8623C65.9033 49.0557 66.5625 49.1729 67.1895 49.2139V46.4893C66.2637 46.126 65.5225 45.7744 64.9658 45.4346C64.415 45.0889 64.0166 44.708 63.7705 44.292C63.5303 43.8701 63.4102 43.3662 63.4102 42.7803C63.4102 42.1826 63.5684 41.667 63.8848 41.2334C64.207 40.7939 64.6523 40.4424 65.2207 40.1787C65.7891 39.915 66.4453 39.751 67.1895 39.6865V38.3418H68.3936V39.6514C69.0732 39.6748 69.7061 39.7539 70.292 39.8887C70.8838 40.0176 71.4639 40.208 72.0322 40.46L71.2061 42.5166C70.7256 42.3174 70.2422 42.1621 69.7559 42.0508C69.2754 41.9395 68.8213 41.8662 68.3936 41.8311V44.4238C69.0439 44.6641 69.6621 44.9248 70.2481 45.2061C70.834 45.4873 71.3115 45.8447 71.6807 46.2783C72.0498 46.7119 72.2344 47.2803 72.2344 47.9834C72.2344 48.8564 71.915 49.5889 71.2764 50.1807C70.6436 50.7725 69.6826 51.127 68.3936 51.2441V53.0459H67.1895ZM68.3936 49.1523C68.8037 49.082 69.1055 48.9619 69.2988 48.792C69.4922 48.6162 69.5889 48.3906 69.5889 48.1152C69.5889 47.9512 69.5449 47.8047 69.457 47.6758C69.3691 47.5469 69.2344 47.4268 69.0527 47.3154C68.877 47.1982 68.6572 47.0811 68.3936 46.9639V49.1523ZM67.1895 43.9316V41.8662C66.9492 41.9014 66.7441 41.96 66.5742 42.042C66.4043 42.1182 66.2754 42.2178 66.1875 42.3408C66.0996 42.4639 66.0557 42.6104 66.0557 42.7803C66.0557 42.9502 66.0938 43.0996 66.1699 43.2285C66.252 43.3574 66.375 43.4775 66.5391 43.5889C66.709 43.7002 66.9258 43.8145 67.1895 43.9316Z" fill="#191919"/>
<g filter="url(#filter0_d_1691_82)">
<rect x="6" y="2" width="24.9696" height="24.8091" rx="6" fill="#FE6847"/>
</g>
<path d="M14.5718 10.7206H22.3748C22.466 10.7205 22.557 10.7263 22.6475 10.7378C22.6168 10.524 22.5429 10.3187 22.4302 10.1341C22.3175 9.94946 22.1684 9.78944 21.9918 9.66366C21.8152 9.53787 21.6148 9.44893 21.4026 9.40218C21.1905 9.35544 20.971 9.35187 20.7574 9.39168L14.3402 10.4802H14.3329C13.93 10.5568 13.5718 10.7832 13.3314 11.1133C13.6936 10.8573 14.1273 10.72 14.5718 10.7206Z" fill="white"/>
<path d="M22.3749 11.3032H14.5719C14.1581 11.3037 13.7615 11.4672 13.4689 11.7579C13.1763 12.0486 13.0117 12.4427 13.0113 12.8538V17.5055C13.0117 17.9166 13.1763 18.3107 13.4689 18.6014C13.7615 18.8921 14.1581 19.0556 14.5719 19.0561H22.3749C22.7887 19.0556 23.1853 18.8921 23.4779 18.6014C23.7705 18.3107 23.9351 17.9166 23.9355 17.5055V12.8538C23.9351 12.4427 23.7705 12.0486 23.4779 11.7579C23.1853 11.4672 22.7887 11.3037 22.3749 11.3032ZM21.2166 15.9549C21.0623 15.9549 20.9115 15.9095 20.7831 15.8243C20.6548 15.7391 20.5548 15.618 20.4957 15.4763C20.4367 15.3347 20.4212 15.1788 20.4513 15.0284C20.4814 14.878 20.5558 14.7399 20.6649 14.6314C20.774 14.523 20.9131 14.4492 21.0644 14.4193C21.2158 14.3893 21.3727 14.4047 21.5153 14.4634C21.6578 14.5221 21.7797 14.6214 21.8654 14.7489C21.9512 14.8764 21.9969 15.0263 21.9969 15.1797C21.9969 15.3853 21.9147 15.5825 21.7684 15.7279C21.6221 15.8733 21.4236 15.9549 21.2166 15.9549Z" fill="white"/>
<path d="M13.0234 14.488V12.0773C13.0234 11.5523 13.3161 10.6721 14.3317 10.4814C15.1937 10.3208 16.0471 10.3208 16.0471 10.3208C16.0471 10.3208 16.6079 10.7084 16.1446 10.7084C15.6813 10.7084 15.6935 11.302 16.1446 11.302C16.5958 11.302 16.1446 11.8714 16.1446 11.8714L14.328 13.9186L13.0234 14.488Z" fill="white"/>
<defs>
<filter id="filter0_d_1691_82" x="0.5" y="-2.38419e-07" width="35.9696" height="35.8091" filterUnits="userSpaceOnUse" color-interpolation-filters="sRGB">
<feFlood flood-opacity="0" result="BackgroundImageFix"/>
<feColorMatrix in="SourceAlpha" type="matrix" values="0 0 0 0 0 0 0 0 0 0 0 0 0 0 0 0 0 0 127 0" result="hardAlpha"/>
<feOffset dy="3.5"/>
<feGaussianBlur stdDeviation="2.75"/>
<feColorMatrix type="matrix" values="0 0 0 0 0 0 0 0 0 0 0 0 0 0 0 0 0 0 0.02 0"/>
<feBlend mode="normal" in2="BackgroundImageFix" result="effect1_dropShadow_1691_82"/>
<feBlend mode="normal" in="SourceGraphic" in2="effect1_dropShadow_1691_82" result="shape"/>
</filter>
</defs>
</svg>
