<svg width="72" height="72" viewBox="0 0 72 72" fill="none" xmlns="http://www.w3.org/2000/svg">
<rect width="72" height="72" rx="13" fill="#191919"/>
<path d="M36 22.6665C28.64 22.6665 22.6667 28.6398 22.6667 35.9998C22.6667 43.3598 28.64 49.3332 36 49.3332C43.36 49.3332 49.3333 43.3598 49.3333 35.9998C49.3333 28.6398 43.36 22.6665 36 22.6665ZM42.1867 31.7332C41.9867 33.8398 41.12 38.9598 40.68 41.3198C40.4933 42.3198 40.12 42.6532 39.7733 42.6932C39 42.7598 38.4133 42.1865 37.6667 41.6932C36.4933 40.9198 35.8267 40.4398 34.6933 39.6932C33.3733 38.8265 34.2267 38.3465 34.9867 37.5732C35.1867 37.3732 38.6 34.2665 38.6667 33.9865C38.6759 33.9441 38.6747 33.9001 38.6631 33.8582C38.6514 33.8164 38.6298 33.7781 38.6 33.7465C38.52 33.6798 38.4133 33.7065 38.32 33.7198C38.2 33.7465 36.3333 34.9865 32.6933 37.4398C32.16 37.7998 31.68 37.9865 31.2533 37.9732C30.7733 37.9598 29.8667 37.7065 29.1867 37.4798C28.3467 37.2132 27.6933 37.0665 27.7467 36.5998C27.7733 36.3598 28.1067 36.1198 28.7333 35.8665C32.6267 34.1732 35.2133 33.0532 36.5067 32.5198C40.2133 30.9732 40.9733 30.7065 41.48 30.7065C41.5867 30.7065 41.84 30.7332 42 30.8665C42.1333 30.9732 42.1733 31.1198 42.1867 31.2265C42.1733 31.3065 42.2 31.5465 42.1867 31.7332Z" fill="#F75708"/>
</svg>
