<svg width="26" height="27" viewBox="0 0 26 27" fill="none" xmlns="http://www.w3.org/2000/svg">
<path d="M24 3.25H13.75V1C13.75 0.801088 13.671 0.610322 13.5303 0.46967C13.3897 0.329018 13.1989 0.25 13 0.25C12.8011 0.25 12.6103 0.329018 12.4697 0.46967C12.329 0.610322 12.25 0.801088 12.25 1V3.25H2C1.53587 3.25 1.09075 3.43437 0.762563 3.76256C0.434375 4.09075 0.25 4.53587 0.25 5V20C0.25 20.4641 0.434375 20.9092 0.762563 21.2374C1.09075 21.5656 1.53587 21.75 2 21.75H7.44L4.41375 25.5312C4.35219 25.6082 4.3064 25.6966 4.27899 25.7913C4.25158 25.886 4.24309 25.9851 4.254 26.0831C4.27604 26.2809 4.37577 26.4619 4.53125 26.5863C4.68673 26.7106 4.88523 26.768 5.08309 26.746C5.28094 26.724 5.46193 26.6242 5.58625 26.4688L9.36 21.75H16.64L20.4137 26.4688C20.4753 26.5457 20.5514 26.6098 20.6378 26.6574C20.7241 26.705 20.819 26.7351 20.9169 26.746C21.0149 26.7569 21.114 26.7484 21.2087 26.721C21.3034 26.6936 21.3918 26.6478 21.4688 26.5863C21.5457 26.5247 21.6098 26.4486 21.6574 26.3622C21.705 26.2759 21.7351 26.181 21.746 26.0831C21.7569 25.9851 21.7484 25.886 21.721 25.7913C21.6936 25.6966 21.6478 25.6082 21.5863 25.5312L18.56 21.75H24C24.4641 21.75 24.9092 21.5656 25.2374 21.2374C25.5656 20.9092 25.75 20.4641 25.75 20V5C25.75 4.53587 25.5656 4.09075 25.2374 3.76256C24.9092 3.43437 24.4641 3.25 24 3.25ZM24.25 20C24.25 20.0663 24.2237 20.1299 24.1768 20.1768C24.1299 20.2237 24.0663 20.25 24 20.25H2C1.9337 20.25 1.87011 20.2237 1.82322 20.1768C1.77634 20.1299 1.75 20.0663 1.75 20V5C1.75 4.9337 1.77634 4.87011 1.82322 4.82322C1.87011 4.77634 1.9337 4.75 2 4.75H24C24.0663 4.75 24.1299 4.77634 24.1768 4.82322C24.2237 4.87011 24.25 4.9337 24.25 5V20ZM9.75 13V16C9.75 16.1989 9.67098 16.3897 9.53033 16.5303C9.38968 16.671 9.19891 16.75 9 16.75C8.80109 16.75 8.61032 16.671 8.46967 16.5303C8.32902 16.3897 8.25 16.1989 8.25 16V13C8.25 12.8011 8.32902 12.6103 8.46967 12.4697C8.61032 12.329 8.80109 12.25 9 12.25C9.19891 12.25 9.38968 12.329 9.53033 12.4697C9.67098 12.6103 9.75 12.8011 9.75 13ZM13.75 11V16C13.75 16.1989 13.671 16.3897 13.5303 16.5303C13.3897 16.671 13.1989 16.75 13 16.75C12.8011 16.75 12.6103 16.671 12.4697 16.5303C12.329 16.3897 12.25 16.1989 12.25 16V11C12.25 10.8011 12.329 10.6103 12.4697 10.4697C12.6103 10.329 12.8011 10.25 13 10.25C13.1989 10.25 13.3897 10.329 13.5303 10.4697C13.671 10.6103 13.75 10.8011 13.75 11ZM17.75 9V16C17.75 16.1989 17.671 16.3897 17.5303 16.5303C17.3897 16.671 17.1989 16.75 17 16.75C16.8011 16.75 16.6103 16.671 16.4697 16.5303C16.329 16.3897 16.25 16.1989 16.25 16V9C16.25 8.80109 16.329 8.61032 16.4697 8.46967C16.6103 8.32902 16.8011 8.25 17 8.25C17.1989 8.25 17.3897 8.32902 17.5303 8.46967C17.671 8.61032 17.75 8.80109 17.75 9Z" fill="white"/>
</svg>
