<svg width="134" height="53" viewBox="0 0 134 53" fill="none" xmlns="http://www.w3.org/2000/svg">
<path d="M130.688 4.5769C131.798 4.5769 132.628 4.8617 133.177 5.43129C133.725 6.00089 134 6.90981 134 8.15807V14.5024H132.408V8.23078C132.408 6.69167 131.743 5.92211 130.413 5.92211C129.462 5.92211 128.779 6.19479 128.364 6.74015C127.961 7.2855 127.76 8.07929 127.76 9.12153V14.5024H126.168V8.23078C126.168 6.69167 125.497 5.92211 124.155 5.92211C123.167 5.92211 122.484 6.22509 122.106 6.83104C121.727 7.43699 121.538 8.30956 121.538 9.44874V14.5024H119.928V4.75869H121.227L121.465 6.08572H121.557C121.862 5.57672 122.27 5.20103 122.783 4.95865C123.307 4.70415 123.862 4.5769 124.448 4.5769C125.985 4.5769 126.985 5.12226 127.449 6.21297H127.54C127.87 5.6555 128.315 5.24345 128.876 4.97683C129.437 4.71021 130.041 4.5769 130.688 4.5769Z" fill="#191919"/>
<path d="M113.385 4.59497C114.581 4.59497 115.465 4.85553 116.039 5.37665C116.612 5.89776 116.899 6.72792 116.899 7.8671V14.5023H115.728L115.417 13.1207H115.343C114.916 13.6539 114.465 14.0478 113.989 14.3023C113.513 14.5568 112.867 14.684 112.05 14.684C111.159 14.684 110.421 14.4538 109.835 13.9933C109.25 13.5206 108.957 12.7874 108.957 11.7937C108.957 10.8241 109.341 10.0788 110.11 9.5577C110.878 9.02447 112.062 8.73361 113.66 8.68513L115.325 8.6306V8.04889C115.325 7.23691 115.148 6.67338 114.794 6.35829C114.441 6.04319 113.94 5.88564 113.294 5.88564C112.782 5.88564 112.294 5.96442 111.83 6.12196C111.366 6.26739 110.933 6.43706 110.531 6.63096L110.037 5.43118C110.464 5.20092 110.97 5.00702 111.555 4.84947C112.141 4.6798 112.751 4.59497 113.385 4.59497ZM115.307 9.73949L113.861 9.79402C112.641 9.8425 111.793 10.0364 111.318 10.3757C110.854 10.7151 110.622 11.1938 110.622 11.8118C110.622 12.3572 110.787 12.7571 111.116 13.0116C111.458 13.2661 111.891 13.3934 112.416 13.3934C113.233 13.3934 113.916 13.1692 114.465 12.7208C115.026 12.2602 115.307 11.5573 115.307 10.6121V9.73949Z" fill="#191919"/>
<path d="M107.259 11.0297C107.259 12.181 106.838 13.0778 105.996 13.7201C105.154 14.3624 104.02 14.6836 102.592 14.6836C101.86 14.6836 101.183 14.6291 100.561 14.52C99.939 14.4109 99.4205 14.2594 99.0057 14.0655V12.5022C99.4449 12.6961 99.9878 12.8718 100.634 13.0294C101.293 13.1869 101.97 13.2657 102.666 13.2657C103.629 13.2657 104.361 13.0778 104.861 12.7021C105.362 12.3265 105.612 11.8175 105.612 11.1751C105.612 10.751 105.52 10.3935 105.337 10.1026C105.154 9.81176 104.837 9.54514 104.386 9.30276C103.934 9.06038 103.318 8.79376 102.537 8.50291C101.415 8.10298 100.573 7.61216 100.012 7.03045C99.451 6.44873 99.1704 5.65494 99.1704 4.64906C99.1704 3.9704 99.3473 3.38263 99.7011 2.88575C100.055 2.38887 100.543 2.00712 101.165 1.7405C101.787 1.47388 102.513 1.34058 103.343 1.34058C104.05 1.34058 104.703 1.40723 105.301 1.54054C105.898 1.67385 106.447 1.84957 106.947 2.06772L106.435 3.46746C105.984 3.27356 105.49 3.10995 104.953 2.97664C104.416 2.84333 103.867 2.77668 103.306 2.77668C102.489 2.77668 101.873 2.9524 101.458 3.30385C101.043 3.64319 100.836 4.09765 100.836 4.66724C100.836 5.10353 100.927 5.4671 101.11 5.75795C101.293 6.04881 101.592 6.31543 102.007 6.55781C102.422 6.78807 102.983 7.03045 103.69 7.28495C104.459 7.56368 105.105 7.86666 105.63 8.19387C106.167 8.50897 106.569 8.89071 106.838 9.33912C107.118 9.78752 107.259 10.3511 107.259 11.0297Z" fill="#191919"/>
<path d="M87.0929 14.6837C85.873 14.6837 84.897 14.2656 84.1651 13.4294C83.4331 12.5811 83.0671 11.3207 83.0671 9.64828C83.0671 7.97586 83.4331 6.71548 84.1651 5.86715C84.9092 5.0067 85.8913 4.57648 87.1112 4.57648C87.8676 4.57648 88.4836 4.71585 88.9594 4.99459C89.4474 5.27332 89.8438 5.61265 90.1488 6.01258H90.2586C90.2342 5.85503 90.2098 5.62477 90.1854 5.3218C90.161 5.0067 90.1488 4.75826 90.1488 4.57648V0.686279H91.7591V14.5019H90.4599L90.222 13.1931H90.1488C89.856 13.6051 89.4657 13.9566 88.9777 14.2474C88.4897 14.5383 87.8615 14.6837 87.0929 14.6837ZM87.3491 13.3567C88.386 13.3567 89.1119 13.078 89.5267 12.5205C89.9536 11.9509 90.1671 11.0965 90.1671 9.95731V9.66646C90.1671 8.45456 89.9658 7.52745 89.5632 6.88515C89.1607 6.23072 88.4165 5.90351 87.3308 5.90351C86.4646 5.90351 85.812 6.2489 85.3728 6.93968C84.9458 7.61835 84.7323 8.53333 84.7323 9.68464C84.7323 10.8481 84.9458 11.7509 85.3728 12.3932C85.812 13.0355 86.4707 13.3567 87.3491 13.3567Z" fill="#191919"/>
<path d="M77.0735 4.59497C78.2691 4.59497 79.1535 4.85553 79.7269 5.37665C80.3002 5.89776 80.5869 6.72792 80.5869 7.8671V14.5023H79.4158L79.1047 13.1207H79.0315C78.6045 13.6539 78.1532 14.0478 77.6774 14.3023C77.2016 14.5568 76.5551 14.684 75.7377 14.684C74.8472 14.684 74.1091 14.4538 73.5235 13.9933C72.938 13.5206 72.6452 12.7874 72.6452 11.7937C72.6452 10.8241 73.0295 10.0788 73.798 9.5577C74.5666 9.02447 75.7499 8.73361 77.348 8.68513L79.0132 8.6306V8.04889C79.0132 7.23691 78.8363 6.67338 78.4826 6.35829C78.1288 6.04319 77.6286 5.88564 76.982 5.88564C76.4697 5.88564 75.9817 5.96442 75.5181 6.12196C75.0546 6.26739 74.6215 6.43706 74.2189 6.63096L73.7248 5.43118C74.1518 5.20092 74.6581 5.00702 75.2436 4.84947C75.8292 4.6798 76.4392 4.59497 77.0735 4.59497ZM78.9949 9.73949L77.5493 9.79402C76.3294 9.8425 75.4815 10.0364 75.0058 10.3757C74.5422 10.7151 74.3104 11.1938 74.3104 11.8118C74.3104 12.3572 74.4751 12.7571 74.8045 13.0116C75.1461 13.2661 75.5791 13.3934 76.1037 13.3934C76.921 13.3934 77.6042 13.1692 78.1532 12.7208C78.7143 12.2602 78.9949 11.5573 78.9949 10.6121V9.73949Z" fill="#191919"/>
<path d="M66.8179 4.5769C67.6475 4.5769 68.3672 4.75869 68.9772 5.12226C69.5871 5.48583 70.0507 6.00089 70.3679 6.66743C70.6973 7.32186 70.862 8.09141 70.862 8.9761V9.93956H64.1463C64.1707 11.0424 64.4513 11.8847 64.988 12.4664C65.537 13.036 66.2995 13.3208 67.2754 13.3208C67.8976 13.3208 68.4465 13.2662 68.9223 13.1572C69.4103 13.036 69.9104 12.8663 70.4228 12.6482V14.0479C69.9226 14.266 69.4286 14.4236 68.9406 14.5205C68.4526 14.6296 67.8732 14.6842 67.2022 14.6842C66.2629 14.6842 65.4394 14.4963 64.7318 14.1206C64.0243 13.7449 63.4692 13.1875 63.0666 12.4482C62.6763 11.7089 62.4811 10.794 62.4811 9.70324C62.4811 8.63677 62.658 7.72178 63.0117 6.95829C63.3777 6.19479 63.884 5.60702 64.5306 5.19497C65.1893 4.78293 65.9518 4.5769 66.8179 4.5769ZM66.7996 5.88576C66.0311 5.88576 65.4211 6.1342 64.9697 6.63107C64.5306 7.11583 64.2683 7.7945 64.1829 8.66707H69.1785C69.1663 7.84298 68.9711 7.17643 68.5929 6.66743C68.2147 6.14631 67.617 5.88576 66.7996 5.88576Z" fill="#191919"/>
<path d="M53.6534 14.5019V1.52246H55.3003V13.0476H61.0096V14.5019H53.6534Z" fill="#191919"/>
<path d="M42.3385 4.5769C43.4487 4.5769 44.2782 4.8617 44.8272 5.43129C45.3761 6.00089 45.6506 6.90981 45.6506 8.15807V14.5024H44.0586V8.23078C44.0586 6.69167 43.3938 5.92211 42.064 5.92211C41.1125 5.92211 40.4293 6.19479 40.0146 6.74015C39.612 7.2855 39.4107 8.07929 39.4107 9.12153V14.5024H37.8187V8.23078C37.8187 6.69167 37.1477 5.92211 35.8058 5.92211C34.8177 5.92211 34.1345 6.22509 33.7563 6.83104C33.3782 7.43699 33.1891 8.30956 33.1891 9.44874V14.5024H31.5788V4.75869H32.878L33.1159 6.08572H33.2074C33.5123 5.57672 33.921 5.20103 34.4334 4.95865C34.958 4.70415 35.513 4.5769 36.0986 4.5769C37.6357 4.5769 38.636 5.12226 39.0996 6.21297H39.1911C39.5205 5.6555 39.9658 5.24345 40.5269 4.97683C41.0881 4.71021 41.692 4.5769 42.3385 4.5769Z" fill="#191919"/>
<path d="M25.0359 4.59497C26.2314 4.59497 27.1159 4.85553 27.6893 5.37665C28.2626 5.89776 28.5493 6.72792 28.5493 7.8671V14.5023H27.3782L27.0671 13.1207H26.9939C26.5669 13.6539 26.1155 14.0478 25.6398 14.3023C25.164 14.5568 24.5174 14.684 23.7001 14.684C22.8095 14.684 22.0715 14.4538 21.4859 13.9933C20.9004 13.5206 20.6076 12.7874 20.6076 11.7937C20.6076 10.8241 20.9919 10.0788 21.7604 9.5577C22.529 9.02447 23.7123 8.73361 25.3104 8.68513L26.9756 8.6306V8.04889C26.9756 7.23691 26.7987 6.67338 26.4449 6.35829C26.0911 6.04319 25.591 5.88564 24.9444 5.88564C24.432 5.88564 23.9441 5.96442 23.4805 6.12196C23.0169 6.26739 22.5839 6.43706 22.1813 6.63096L21.6872 5.43118C22.1142 5.20092 22.6205 5.00702 23.206 4.84947C23.7916 4.6798 24.4015 4.59497 25.0359 4.59497ZM26.9573 9.73949L25.5117 9.79402C24.2918 9.8425 23.4439 10.0364 22.9681 10.3757C22.5046 10.7151 22.2728 11.1938 22.2728 11.8118C22.2728 12.3572 22.4375 12.7571 22.7668 13.0116C23.1084 13.2661 23.5415 13.3934 24.0661 13.3934C24.8834 13.3934 25.5666 13.1692 26.1155 12.7208C26.6767 12.2602 26.9573 11.5573 26.9573 10.6121V9.73949Z" fill="#191919"/>
<path d="M14.7804 4.5769C15.61 4.5769 16.3297 4.75869 16.9397 5.12226C17.5496 5.48583 18.0132 6.00089 18.3304 6.66743C18.6598 7.32186 18.8245 8.09141 18.8245 8.9761V9.93956H12.1088C12.1332 11.0424 12.4138 11.8847 12.9505 12.4664C13.4995 13.036 14.2619 13.3208 15.2379 13.3208C15.86 13.3208 16.409 13.2662 16.8848 13.1572C17.3728 13.036 17.8729 12.8663 18.3853 12.6482V14.0479C17.8851 14.266 17.3911 14.4236 16.9031 14.5205C16.4151 14.6296 15.8357 14.6842 15.1647 14.6842C14.2253 14.6842 13.4019 14.4963 12.6943 14.1206C11.9868 13.7449 11.4317 13.1875 11.0291 12.4482C10.6388 11.7089 10.4436 10.794 10.4436 9.70324C10.4436 8.63677 10.6205 7.72178 10.9742 6.95829C11.3402 6.19479 11.8465 5.60702 12.4931 5.19497C13.1518 4.78293 13.9143 4.5769 14.7804 4.5769ZM14.7621 5.88576C13.9936 5.88576 13.3836 6.1342 12.9322 6.63107C12.4931 7.11583 12.2308 7.7945 12.1454 8.66707H17.141C17.1288 7.84298 16.9336 7.17643 16.5554 6.66743C16.1772 6.14631 15.5795 5.88576 14.7621 5.88576Z" fill="#191919"/>
<path d="M6.46627 14.5019H4.81936V2.95856H0.738708V1.52246H10.5286V2.95856H6.46627V14.5019Z" fill="#191919"/>
<path d="M105.959 27.9907C106.462 27.9907 106.913 28.085 107.311 28.2735C107.719 28.462 108.066 28.7495 108.35 29.136H108.421L108.592 28.1321H109.589V35.8378C109.589 36.9218 109.309 37.7371 108.749 38.2838C108.199 38.8305 107.34 39.1038 106.173 39.1038C105.053 39.1038 104.138 38.9436 103.426 38.6231V37.4779C104.175 37.8738 105.115 38.0717 106.244 38.0717C106.899 38.0717 107.411 37.8785 107.781 37.492C108.161 37.115 108.35 36.5966 108.35 35.9367V35.6398C108.35 35.5267 108.355 35.3665 108.365 35.1591C108.374 34.9423 108.384 34.7915 108.393 34.7067H108.336C107.824 35.4702 107.036 35.8519 105.974 35.8519C104.987 35.8519 104.213 35.5079 103.654 34.8198C103.103 34.1317 102.828 33.1702 102.828 31.9355C102.828 30.7289 103.103 29.7722 103.654 29.0653C104.213 28.3489 104.982 27.9907 105.959 27.9907ZM106.13 29.037C105.494 29.037 105.001 29.2915 104.65 29.8005C104.299 30.3001 104.123 31.0164 104.123 31.9496C104.123 32.8828 104.294 33.5991 104.636 34.0987C104.977 34.5888 105.485 34.8339 106.159 34.8339C106.927 34.8339 107.487 34.6313 107.838 34.2259C108.189 33.8112 108.365 33.1467 108.365 32.2324V31.9355C108.365 30.908 108.184 30.1681 107.824 29.7157C107.463 29.2632 106.899 29.037 106.13 29.037Z" fill="#F75708"/>
<path d="M101.073 27.9907C101.215 27.9907 101.367 28.0001 101.529 28.019C101.69 28.0284 101.837 28.0473 101.97 28.0756L101.813 29.2208C101.69 29.1925 101.552 29.169 101.4 29.1501C101.249 29.1313 101.111 29.1218 100.988 29.1218C100.599 29.1218 100.233 29.2302 99.8918 29.447C99.5502 29.6544 99.275 29.9513 99.0663 30.3378C98.867 30.7148 98.7674 31.1578 98.7674 31.6668V35.7105H97.515V28.1321H98.5397L98.682 29.5177H98.7389C98.9761 29.103 99.2893 28.7448 99.6783 28.4432C100.077 28.1415 100.542 27.9907 101.073 27.9907Z" fill="#F75708"/>
<path d="M95.53 31.9072C95.53 33.1608 95.2074 34.1317 94.5621 34.8198C93.9264 35.5079 93.063 35.8519 91.9718 35.8519C91.2982 35.8519 90.6957 35.7011 90.1643 35.3995C89.6425 35.0884 89.2297 34.6407 88.9261 34.0563C88.6225 33.4625 88.4706 32.7461 88.4706 31.9072C88.4706 30.6535 88.7838 29.6874 89.41 29.0087C90.0457 28.3301 90.9139 27.9907 92.0145 27.9907C92.6977 27.9907 93.3049 28.1462 93.8363 28.4573C94.3676 28.7589 94.7804 29.2019 95.0745 29.7864C95.3781 30.3613 95.53 31.0683 95.53 31.9072ZM89.7658 31.9072C89.7658 32.8026 89.9413 33.5143 90.2924 34.0421C90.653 34.5606 91.2223 34.8198 92.0003 34.8198C92.7689 34.8198 93.3334 34.5606 93.694 34.0421C94.0545 33.5143 94.2348 32.8026 94.2348 31.9072C94.2348 31.0117 94.0545 30.3095 93.694 29.8005C93.3334 29.2915 92.7641 29.037 91.9861 29.037C91.208 29.037 90.6435 29.2915 90.2924 29.8005C89.9413 30.3095 89.7658 31.0117 89.7658 31.9072Z" fill="#F75708"/>
<path d="M84.9044 34.9467C84.9044 34.598 84.9898 34.3529 85.1605 34.2116C85.3313 34.0702 85.5353 33.9995 85.7725 33.9995C86.0097 33.9995 86.2185 34.0702 86.3988 34.2116C86.579 34.3529 86.6692 34.598 86.6692 34.9467C86.6692 35.2859 86.579 35.531 86.3988 35.6818C86.2185 35.8326 86.0097 35.908 85.7725 35.908C85.5353 35.908 85.3313 35.8326 85.1605 35.6818C84.9898 35.531 84.9044 35.2859 84.9044 34.9467Z" fill="#F75708"/>
<path d="M83.1044 31.9072C83.1044 33.1608 82.7818 34.1317 82.1366 34.8198C81.5008 35.5079 80.6374 35.8519 79.5462 35.8519C78.8726 35.8519 78.2701 35.7011 77.7387 35.3995C77.2169 35.0884 76.8041 34.6407 76.5005 34.0563C76.1969 33.4625 76.045 32.7461 76.045 31.9072C76.045 30.6535 76.3582 29.6874 76.9844 29.0087C77.6201 28.3301 78.4883 27.9907 79.5889 27.9907C80.2721 27.9907 80.8793 28.1462 81.4107 28.4573C81.942 28.7589 82.3548 29.2019 82.6489 29.7864C82.9525 30.3613 83.1044 31.0683 83.1044 31.9072ZM77.3402 31.9072C77.3402 32.8026 77.5157 33.5143 77.8668 34.0421C78.2274 34.5606 78.7967 34.8198 79.5747 34.8198C80.3433 34.8198 80.9078 34.5606 81.2684 34.0421C81.6289 33.5143 81.8092 32.8026 81.8092 31.9072C81.8092 31.0117 81.6289 30.3095 81.2684 29.8005C80.9078 29.2915 80.3385 29.037 79.5605 29.037C78.7824 29.037 78.2179 29.2915 77.8668 29.8005C77.5157 30.3095 77.3402 31.0117 77.3402 31.9072Z" fill="#F75708"/>
<path d="M74.4288 27.9907C74.5712 27.9907 74.723 28.0001 74.8843 28.019C75.0456 28.0284 75.1927 28.0473 75.3255 28.0756L75.1689 29.2208C75.0456 29.1925 74.908 29.169 74.7562 29.1501C74.6044 29.1313 74.4668 29.1218 74.3435 29.1218C73.9544 29.1218 73.5891 29.2302 73.2475 29.447C72.906 29.6544 72.6308 29.9513 72.4221 30.3378C72.2228 30.7148 72.1232 31.1578 72.1232 31.6668V35.7105H70.8707V28.1321H71.8955L72.0378 29.5177H72.0947C72.3319 29.103 72.645 28.7448 73.0341 28.4432C73.4326 28.1415 73.8975 27.9907 74.4288 27.9907Z" fill="#F75708"/>
<path d="M65.7833 27.9907C66.4285 27.9907 66.9883 28.1321 67.4627 28.4149C67.9371 28.6977 68.2977 29.0983 68.5444 29.6167C68.8005 30.1257 68.9286 30.7242 68.9286 31.4123V32.1617H63.7053C63.7243 33.0194 63.9425 33.6745 64.36 34.127C64.787 34.57 65.38 34.7915 66.1391 34.7915C66.623 34.7915 67.0499 34.7491 67.42 34.6643C67.7995 34.57 68.1885 34.438 68.5871 34.2684V35.3571C68.198 35.5267 67.8138 35.6493 67.4342 35.7247C67.0547 35.8095 66.604 35.8519 66.0821 35.8519C65.3515 35.8519 64.7111 35.7058 64.1608 35.4136C63.6104 35.1214 63.1787 34.6878 62.8656 34.1128C62.562 33.5379 62.4102 32.8262 62.4102 31.9779C62.4102 31.1484 62.5477 30.4367 62.8229 29.8429C63.1075 29.2491 63.5013 28.7919 64.0042 28.4714C64.5166 28.151 65.1096 27.9907 65.7833 27.9907ZM65.769 29.0087C65.1713 29.0087 64.6968 29.2019 64.3458 29.5884C64.0042 29.9654 63.8002 30.4933 63.7338 31.172H67.6192C67.6098 30.531 67.4579 30.0126 67.1638 29.6167C66.8697 29.2114 66.4047 29.0087 65.769 29.0087Z" fill="#F75708"/>
<path d="M55.3334 24.9648V27.5805C55.3334 27.901 55.3239 28.2026 55.3049 28.4854C55.2954 28.7588 55.2812 28.9756 55.2622 29.1358H55.3334C55.5516 28.8153 55.8505 28.5467 56.23 28.3299C56.6096 28.1131 57.0982 28.0047 57.696 28.0047C58.6448 28.0047 59.4039 28.3346 59.9732 28.9944C60.552 29.6448 60.8414 30.6204 60.8414 31.9212C60.8414 33.2219 60.552 34.2022 59.9732 34.862C59.3944 35.5218 58.6353 35.8517 57.696 35.8517C57.0982 35.8517 56.6096 35.7433 56.23 35.5266C55.8505 35.3098 55.5516 35.0505 55.3334 34.7489H55.2338L54.9776 35.7104H54.0809V24.9648H55.3334ZM57.4825 29.0368C56.6665 29.0368 56.1019 29.2678 55.7888 29.7296C55.4852 30.1915 55.3334 30.9079 55.3334 31.8787V31.9353C55.3334 32.8685 55.4852 33.5848 55.7888 34.0844C56.1019 34.5745 56.676 34.8196 57.511 34.8196C58.1941 34.8196 58.7017 34.5698 59.0338 34.0703C59.3754 33.5707 59.5462 32.8496 59.5462 31.907C59.5462 29.9936 58.8583 29.0368 57.4825 29.0368Z" fill="#F75708"/>
<path d="M51.052 25.29C51.2418 25.29 51.4079 25.356 51.5502 25.488C51.702 25.6105 51.7779 25.8085 51.7779 26.0818C51.7779 26.3552 51.702 26.5578 51.5502 26.6898C51.4079 26.8123 51.2418 26.8736 51.052 26.8736C50.8433 26.8736 50.6678 26.8123 50.5254 26.6898C50.3831 26.5578 50.312 26.3552 50.312 26.0818C50.312 25.8085 50.3831 25.6105 50.5254 25.488C50.6678 25.356 50.8433 25.29 51.052 25.29ZM51.664 28.1319V35.7104H50.4116V28.1319H51.664Z" fill="#F75708"/>
<path d="M44.8637 35.7103L41.9745 28.1318H43.3124L44.9349 32.5997C45.0108 32.8071 45.0915 33.038 45.1769 33.2925C45.2623 33.547 45.3382 33.7921 45.4046 34.0277C45.471 34.2634 45.5184 34.4566 45.5469 34.6074H45.6038C45.6323 34.4566 45.6845 34.2634 45.7604 34.0277C45.8363 33.7827 45.9169 33.5376 46.0023 33.2925C46.0877 33.038 46.1684 32.8071 46.2443 32.5997L47.8668 28.1318H49.2046L46.3012 35.7103H44.8637Z" fill="#F75708"/>
<path d="M41.1431 30.6628C41.1431 31.0964 41.0909 31.5206 40.9865 31.9353C40.8916 32.35 40.7398 32.7271 40.5311 33.0664C40.3223 33.3963 40.0661 33.6649 39.7625 33.8723C39.4589 34.0703 39.0983 34.1692 38.6808 34.1692C38.2444 34.1692 37.8981 34.0467 37.6419 33.8016C37.3952 33.5471 37.2434 33.2596 37.1864 32.9392H37.1153C36.9445 33.2879 36.693 33.5801 36.3609 33.8158C36.0289 34.0514 35.6114 34.1692 35.1085 34.1692C34.3779 34.1692 33.8181 33.9289 33.4291 33.4481C33.04 32.9674 32.8455 32.3312 32.8455 31.5394C32.8455 30.9267 32.9689 30.38 33.2156 29.8993C33.4623 29.4186 33.8086 29.0415 34.2545 28.7682C34.71 28.4948 35.2461 28.3582 35.8628 28.3582C36.2803 28.3582 36.6883 28.3959 37.0868 28.4713C37.4948 28.5373 37.8127 28.6127 38.0404 28.6975L37.8981 31.5677C37.8886 31.7373 37.8838 31.8599 37.8838 31.9353C37.8838 32.0013 37.8838 32.0484 37.8838 32.0767C37.8838 32.5763 37.9692 32.9062 38.14 33.0664C38.3203 33.2172 38.529 33.2926 38.7662 33.2926C39.0604 33.2926 39.3071 33.1748 39.5063 32.9392C39.7151 32.6941 39.8716 32.3736 39.976 31.9777C40.0899 31.5818 40.1468 31.1388 40.1468 30.6487C40.1468 29.7815 39.9665 29.0415 39.6059 28.4289C39.2549 27.8162 38.7662 27.3496 38.14 27.0291C37.5233 26.7086 36.8211 26.5484 36.0336 26.5484C34.9519 26.5484 34.0363 26.7699 33.2867 27.2129C32.5466 27.6559 31.9821 28.2686 31.5931 29.051C31.2135 29.8239 31.0238 30.7099 31.0238 31.7091C31.0238 33.1041 31.3938 34.1739 32.1339 34.9186C32.874 35.6632 33.9414 36.0356 35.3362 36.0356C35.915 36.0356 36.4653 35.9696 36.9872 35.8376C37.5185 35.7151 37.9882 35.5784 38.3962 35.4276V36.389C37.9882 36.5587 37.528 36.6954 37.0156 36.7991C36.5128 36.9122 35.9529 36.9687 35.3362 36.9687C34.2166 36.9687 33.2583 36.7613 32.4612 36.3466C31.6642 35.9319 31.0522 35.338 30.6253 34.5651C30.2078 33.7828 29.999 32.8449 29.999 31.7515C29.999 30.8749 30.1366 30.0643 30.4118 29.3196C30.6869 28.5655 31.0854 27.9152 31.6073 27.3685C32.1292 26.8123 32.7601 26.3834 33.5002 26.0818C34.2498 25.7708 35.0943 25.6152 36.0336 25.6152C37.0204 25.6152 37.8981 25.8179 38.6666 26.2232C39.4352 26.6285 40.0377 27.2082 40.4741 27.9623C40.9201 28.7164 41.1431 29.6165 41.1431 30.6628ZM33.9557 31.5677C33.9557 32.1804 34.0743 32.6234 34.3115 32.8967C34.5487 33.1607 34.876 33.2926 35.2935 33.2926C35.8249 33.2926 36.2044 33.0947 36.4321 32.6988C36.6693 32.3029 36.8069 31.7892 36.8448 31.1577L36.9302 29.3903C36.8069 29.3526 36.6503 29.3196 36.4606 29.2913C36.2708 29.2631 36.0763 29.2489 35.877 29.2489C35.4121 29.2489 35.0373 29.362 34.7527 29.5882C34.468 29.8145 34.264 30.1067 34.1407 30.4649C34.0173 30.8136 33.9557 31.1812 33.9557 31.5677Z" fill="#F75708"/>
<path d="M27.9664 35.7104H26.714V24.9648H27.9664V35.7104Z" fill="#F75708"/>
<path d="M23.6851 25.29C23.8749 25.29 24.0409 25.356 24.1833 25.488C24.3351 25.6105 24.411 25.8085 24.411 26.0818C24.411 26.3552 24.3351 26.5578 24.1833 26.6898C24.0409 26.8123 23.8749 26.8736 23.6851 26.8736C23.4764 26.8736 23.3008 26.8123 23.1585 26.6898C23.0162 26.5578 22.945 26.3552 22.945 26.0818C22.945 25.8085 23.0162 25.6105 23.1585 25.488C23.3008 25.356 23.4764 25.29 23.6851 25.29ZM24.2971 28.1319V35.7104H23.0447V28.1319H24.2971Z" fill="#F75708"/>
<path d="M17.9559 28.0049C18.8857 28.0049 19.5736 28.2075 20.0196 28.6129C20.4655 29.0182 20.6885 29.6638 20.6885 30.5499V35.7105H19.7776L19.5357 34.636H19.4788C19.1467 35.0507 18.7956 35.3571 18.4256 35.555C18.0555 35.753 17.5526 35.8519 16.9169 35.8519C16.2243 35.8519 15.6502 35.6728 15.1948 35.3147C14.7393 34.9471 14.5116 34.3768 14.5116 33.6039C14.5116 32.8498 14.8105 32.2701 15.4083 31.8648C16.006 31.45 16.9264 31.2238 18.1694 31.1861L19.4645 31.1437V30.6913C19.4645 30.0597 19.327 29.6214 19.0518 29.3763C18.7766 29.1313 18.3876 29.0087 17.8847 29.0087C17.4862 29.0087 17.1067 29.07 16.7461 29.1925C16.3856 29.3057 16.0487 29.4376 15.7356 29.5884L15.3513 28.6553C15.6834 28.4762 16.0772 28.3254 16.5326 28.2028C16.9881 28.0709 17.4625 28.0049 17.9559 28.0049ZM19.4503 32.0062L18.3259 32.0486C17.3771 32.0863 16.7177 32.2371 16.3476 32.501C15.9871 32.765 15.8068 33.1373 15.8068 33.618C15.8068 34.0422 15.9349 34.3532 16.1911 34.5512C16.4567 34.7491 16.7936 34.8481 17.2016 34.8481C17.8373 34.8481 18.3686 34.6737 18.7956 34.3249C19.2321 33.9668 19.4503 33.4201 19.4503 32.6848V32.0062Z" fill="#F75708"/>
<path d="M10.1342 27.9907C10.9976 27.9907 11.6428 28.2122 12.0698 28.6552C12.4968 29.0983 12.7103 29.8052 12.7103 30.7761V35.7105H11.472V30.8326C11.472 29.6355 10.9549 29.037 9.92069 29.037C9.1806 29.037 8.64925 29.2491 8.32665 29.6732C8.01353 30.0974 7.85697 30.7148 7.85697 31.5254V35.7105H6.61875V30.8326C6.61875 29.6355 6.09689 29.037 5.05318 29.037C4.28462 29.037 3.75328 29.2726 3.45914 29.7439C3.165 30.2152 3.01793 30.8939 3.01793 31.7799V35.7105H1.76547V28.1321H2.77598L2.961 29.1642H3.03216C3.26937 28.7684 3.58723 28.4762 3.98574 28.2876C4.39374 28.0897 4.82546 27.9907 5.2809 27.9907C6.47642 27.9907 7.25447 28.4149 7.61502 29.2632H7.68619C7.94237 28.8296 8.28869 28.5091 8.72516 28.3018C9.16162 28.0944 9.63129 27.9907 10.1342 27.9907Z" fill="#F75708"/>
<path d="M57.8355 53.0001C57.0954 53.0001 56.4895 52.7133 56.0178 52.1396C55.5542 51.5579 55.3224 50.7056 55.3224 49.5825C55.3224 48.4514 55.5583 47.595 56.03 47.0133C56.5017 46.4316 57.1198 46.1407 57.8843 46.1407C58.3641 46.1407 58.7586 46.2336 59.0676 46.4195C59.3767 46.6053 59.6207 46.8356 59.7996 47.1103H59.8606C59.8362 46.981 59.8077 46.7952 59.7752 46.5528C59.7427 46.3023 59.7264 46.0478 59.7264 45.7893V43.6685H61.5441V52.8789H60.1534L59.7996 52.0184H59.7264C59.5475 52.2931 59.3075 52.5274 59.0066 52.7214C58.7057 52.9072 58.3153 53.0001 57.8355 53.0001ZM58.4699 51.5579C58.966 51.5579 59.3157 51.4125 59.519 51.1216C59.7223 50.8227 59.8321 50.3783 59.8484 49.7886V49.5946C59.8484 48.9564 59.7467 48.4676 59.5434 48.1283C59.3482 47.7808 58.9822 47.6071 58.4455 47.6071C58.047 47.6071 57.7338 47.7808 57.5061 48.1283C57.2784 48.4676 57.1645 48.9604 57.1645 49.6068C57.1645 50.2531 57.2784 50.7419 57.5061 51.0732C57.7338 51.3963 58.0551 51.5579 58.4699 51.5579Z" fill="#F75708"/>
<path d="M51.0951 46.1287C51.9898 46.1287 52.6729 46.3226 53.1446 46.7104C53.6245 47.0901 53.8644 47.6759 53.8644 48.4676V52.8789H52.5957L52.2419 51.9821H52.1931C51.9084 52.3376 51.6075 52.5962 51.2903 52.7578C50.9732 52.9193 50.538 53.0001 49.985 53.0001C49.3913 53.0001 48.8993 52.8305 48.5089 52.4911C48.1185 52.1518 47.9233 51.6226 47.9233 50.9035C47.9233 50.2006 48.1714 49.6836 48.6675 49.3523C49.1636 49.0211 49.9078 48.8352 50.9 48.7948L52.0589 48.7585V48.4676C52.0589 48.1202 51.9654 47.8657 51.7783 47.7041C51.5994 47.5425 51.3473 47.4618 51.022 47.4618C50.6966 47.4618 50.3795 47.5102 50.0704 47.6072C49.7614 47.6961 49.4523 47.8092 49.1433 47.9465L48.5455 46.7225C48.8952 46.5447 49.2897 46.4034 49.7288 46.2983C50.168 46.1852 50.6234 46.1287 51.0951 46.1287ZM52.0589 49.8128L51.3513 49.8371C50.7658 49.8532 50.3591 49.9583 50.1314 50.1522C49.9037 50.3461 49.7898 50.6006 49.7898 50.9157C49.7898 51.1904 49.8712 51.3883 50.0338 51.5095C50.1965 51.6226 50.4079 51.6792 50.6682 51.6792C51.0585 51.6792 51.3879 51.5661 51.6563 51.3398C51.9247 51.1055 52.0589 50.7783 52.0589 50.3582V49.8128Z" fill="#F75708"/>
<path d="M43.8999 46.1409C44.8189 46.1409 45.5468 46.4034 46.0836 46.9286C46.6204 47.4457 46.8887 48.1849 46.8887 49.1464V50.019H42.5946C42.6109 50.5279 42.7613 50.9279 43.046 51.2187C43.3387 51.5096 43.7413 51.655 44.2537 51.655C44.6766 51.655 45.0629 51.6146 45.4126 51.5338C45.7705 51.445 46.1364 51.3116 46.5106 51.1339V52.5276C46.1771 52.6892 45.8315 52.8063 45.4736 52.879C45.1158 52.9598 44.6807 53.0002 44.1683 53.0002C43.5014 53.0002 42.9118 52.879 42.3994 52.6367C41.887 52.3862 41.4845 52.0145 41.1917 51.5217C40.8989 51.0208 40.7525 50.3866 40.7525 49.619C40.7525 48.8515 40.8826 48.2092 41.1429 47.6921C41.4113 47.175 41.7813 46.7872 42.253 46.5287C42.7247 46.2701 43.2737 46.1409 43.8999 46.1409ZM43.9121 47.4255C43.5543 47.4255 43.2615 47.5386 43.0338 47.7648C42.806 47.991 42.6719 48.3425 42.6312 48.8192H45.1808C45.1727 48.4233 45.0629 48.092 44.8515 47.8254C44.6481 47.5588 44.335 47.4255 43.9121 47.4255Z" fill="#F75708"/>
<path d="M39.2556 52.8789H37.438V43.6685H39.2556V52.8789Z" fill="#F75708"/>
<path d="M30.1039 46.1409C30.8603 46.1409 31.4296 46.3348 31.8118 46.7226C32.2022 47.1023 32.3974 47.7163 32.3974 48.5647V52.879H30.5797V49.0131C30.5797 48.0597 30.2462 47.583 29.5793 47.583C29.0995 47.583 28.7579 47.7527 28.5546 48.092C28.3513 48.4314 28.2496 48.9202 28.2496 49.5584V52.879H26.4319V49.0131C26.4319 48.0597 26.0985 47.583 25.4316 47.583C24.9274 47.583 24.5776 47.7729 24.3825 48.1526C24.1954 48.5243 24.1019 49.0615 24.1019 49.7645V52.879H22.2842V46.2621H23.6749L23.9189 47.1104H24.0165C24.2198 46.7711 24.4963 46.5246 24.846 46.3711C25.2039 46.2176 25.5739 46.1409 25.9562 46.1409C26.4441 46.1409 26.8548 46.2217 27.1883 46.3832C27.5299 46.5368 27.7942 46.7791 27.9812 47.1104H28.1398C28.3432 46.7711 28.6237 46.5246 28.9816 46.3711C29.3476 46.2176 29.7217 46.1409 30.1039 46.1409Z" fill="#F75708"/>
<path d="M17.6544 46.1287C18.549 46.1287 19.2321 46.3226 19.7038 46.7104C20.1837 47.0901 20.4236 47.6759 20.4236 48.4676V52.8789H19.1549L18.8011 51.9821H18.7523C18.4676 52.3376 18.1667 52.5962 17.8495 52.7578C17.5324 52.9193 17.0973 53.0001 16.5442 53.0001C15.9505 53.0001 15.4585 52.8305 15.0681 52.4911C14.6777 52.1518 14.4825 51.6226 14.4825 50.9035C14.4825 50.2006 14.7306 49.6836 15.2267 49.3523C15.7228 49.0211 16.467 48.8352 17.4592 48.7948L18.6181 48.7585V48.4676C18.6181 48.1202 18.5246 47.8657 18.3375 47.7041C18.1586 47.5425 17.9065 47.4618 17.5812 47.4618C17.2558 47.4618 16.9387 47.5102 16.6296 47.6072C16.3206 47.6961 16.0115 47.8092 15.7025 47.9465L15.1047 46.7225C15.4544 46.5447 15.8489 46.4034 16.288 46.2983C16.7272 46.1852 17.1826 46.1287 17.6544 46.1287ZM18.6181 49.8128L17.9105 49.8371C17.325 49.8532 16.9183 49.9583 16.6906 50.1522C16.4629 50.3461 16.349 50.6006 16.349 50.9157C16.349 51.1904 16.4304 51.3883 16.593 51.5095C16.7557 51.6226 16.9671 51.6792 17.2274 51.6792C17.6178 51.6792 17.9471 51.5661 18.2155 51.3398C18.4839 51.1055 18.6181 50.7783 18.6181 50.3582V49.8128Z" fill="#F75708"/>
<path d="M10.4591 46.1409C11.3781 46.1409 12.106 46.4034 12.6428 46.9286C13.1795 47.4457 13.4479 48.1849 13.4479 49.1464V50.019H9.15377C9.17003 50.5279 9.32049 50.9279 9.60514 51.2187C9.89792 51.5096 10.3005 51.655 10.8129 51.655C11.2358 51.655 11.6221 51.6146 11.9718 51.5338C12.3296 51.445 12.6956 51.3116 13.0697 51.1339V52.5276C12.7363 52.6892 12.3906 52.8063 12.0328 52.879C11.6749 52.9598 11.2398 53.0002 10.7275 53.0002C10.0606 53.0002 9.47095 52.879 8.95858 52.6367C8.44621 52.3862 8.04363 52.0145 7.75085 51.5217C7.45807 51.0208 7.31168 50.3866 7.31168 49.619C7.31168 48.8515 7.4418 48.2092 7.70205 47.6921C7.97044 47.175 8.34048 46.7872 8.81219 46.5287C9.28389 46.2701 9.83286 46.1409 10.4591 46.1409ZM10.4713 47.4255C10.1134 47.4255 9.82066 47.5386 9.59294 47.7648C9.36522 47.991 9.23103 48.3425 9.19036 48.8192H11.74C11.7319 48.4233 11.6221 48.092 11.4106 47.8254C11.2073 47.5588 10.8942 47.4255 10.4713 47.4255Z" fill="#F75708"/>
<path d="M5.00816 52.8788H3.16607V45.7528H0.799408V44.2258H7.37481V45.7528H5.00816V52.8788Z" fill="#F75708"/>
</svg>
