<svg width="110" height="55" viewBox="0 0 110 55" fill="none" xmlns="http://www.w3.org/2000/svg">
<path d="M101.452 10.8112C101.452 11.7565 101.095 12.4715 100.381 12.9563C99.6663 13.441 98.7057 13.6834 97.4987 13.6834C96.809 13.6834 96.2117 13.6289 95.7067 13.5198C95.2141 13.4107 94.7769 13.2593 94.3951 13.0654V11.6111C94.7892 11.805 95.2634 11.9868 95.8176 12.1564C96.3841 12.314 96.9568 12.3927 97.5357 12.3927C98.3608 12.3927 98.9581 12.2655 99.3276 12.011C99.6971 11.7444 99.8818 11.3929 99.8818 10.9566C99.8818 10.7143 99.8141 10.4961 99.6786 10.3022C99.5431 10.1083 99.2968 9.91441 98.9397 9.72051C98.5948 9.5266 98.096 9.30846 97.4433 9.06608C96.8029 8.8237 96.2548 8.58132 95.7991 8.33894C95.3434 8.09656 94.9924 7.8057 94.7461 7.46637C94.4998 7.12704 94.3766 6.69075 94.3766 6.15752C94.3766 5.33343 94.7153 4.69718 95.3927 4.24878C96.0824 3.80037 96.9814 3.57617 98.0899 3.57617C98.6934 3.57617 99.2537 3.63677 99.771 3.75796C100.301 3.87915 100.793 4.03669 101.249 4.2306L100.695 5.50309C100.276 5.33343 99.8387 5.188 99.383 5.06681C98.9273 4.94562 98.4593 4.88502 97.979 4.88502C97.314 4.88502 96.8029 4.99409 96.4457 5.21224C96.1008 5.41826 95.9284 5.70306 95.9284 6.06663C95.9284 6.34536 96.0085 6.57562 96.1686 6.75741C96.3287 6.93919 96.5935 7.12098 96.963 7.30276C97.3448 7.48455 97.8497 7.69057 98.4778 7.92083C99.1059 8.15109 99.6417 8.38741 100.085 8.6298C100.528 8.87218 100.867 9.16909 101.101 9.52054C101.335 9.85987 101.452 10.2901 101.452 10.8112Z" fill="#191919"/>
<path d="M88.3996 3.59424C89.6066 3.59424 90.4995 3.8548 91.0783 4.37591C91.6572 4.89703 91.9466 5.72718 91.9466 6.86637V13.5015H90.7643L90.4502 12.12H90.3763C89.9453 12.6532 89.4896 13.0471 89.0092 13.3016C88.5289 13.5561 87.8762 13.6833 87.051 13.6833C86.1519 13.6833 85.4068 13.453 84.8157 12.9925C84.2245 12.5199 83.9289 11.7867 83.9289 10.7929C83.9289 9.8234 84.3169 9.07809 85.0928 8.55697C85.8687 8.02373 87.0633 7.73288 88.6767 7.6844L90.3578 7.62987V7.04815C90.3578 6.23618 90.1793 5.67265 89.8221 5.35755C89.4649 5.04246 88.96 4.88491 88.3072 4.88491C87.79 4.88491 87.2973 4.96369 86.8293 5.12123C86.3613 5.26666 85.9241 5.43633 85.5177 5.63023L85.0189 4.43045C85.4499 4.20019 85.9611 4.00628 86.5522 3.84874C87.1434 3.67907 87.7592 3.59424 88.3996 3.59424ZM90.3394 8.73875L88.8799 8.79329C87.6483 8.84176 86.7924 9.03567 86.3121 9.375C85.844 9.71433 85.61 10.193 85.61 10.8111C85.61 11.3565 85.7763 11.7564 86.1088 12.0109C86.4537 12.2654 86.8909 12.3926 87.4205 12.3926C88.2457 12.3926 88.9353 12.1684 89.4896 11.72C90.0561 11.2595 90.3394 10.5566 90.3394 9.61132V8.73875Z" fill="#191919"/>
<path d="M78.247 3.57617C79.3677 3.57617 80.2052 3.86097 80.7594 4.43056C81.3136 5.00015 81.5908 5.90908 81.5908 7.15734V13.5016H79.9835V7.23005C79.9835 5.69094 79.3123 4.92138 77.9699 4.92138C77.0092 4.92138 76.3195 5.19406 75.9008 5.73941C75.4944 6.28477 75.2912 7.07856 75.2912 8.1208V13.5016H73.6839V7.23005C73.6839 5.69094 73.0066 4.92138 71.6518 4.92138C70.6542 4.92138 69.9645 5.22436 69.5827 5.83031C69.2009 6.43626 69.01 7.30882 69.01 8.44801V13.5016H67.3843V3.75796H68.696L68.9361 5.08499H69.0285C69.3364 4.57599 69.749 4.2003 70.2663 3.95792C70.7958 3.70342 71.3562 3.57617 71.9474 3.57617C73.4992 3.57617 74.5091 4.12153 74.9771 5.21224H75.0695C75.402 4.65476 75.8515 4.24272 76.4181 3.9761C76.9846 3.70948 77.5942 3.57617 78.247 3.57617Z" fill="#191919"/>
<path d="M64.8077 8.61162C64.8077 10.2234 64.3889 11.4717 63.5514 12.3564C62.7263 13.2411 61.6055 13.6834 60.1892 13.6834C59.3148 13.6834 58.5327 13.4895 57.843 13.1017C57.1656 12.7018 56.6299 12.1261 56.2358 11.3747C55.8417 10.6113 55.6446 9.69021 55.6446 8.61162C55.6446 6.99979 56.051 5.75759 56.8639 4.88502C57.6891 4.01246 58.816 3.57617 60.2446 3.57617C61.1314 3.57617 61.9196 3.77614 62.6093 4.17606C63.299 4.56387 63.8347 5.13346 64.2165 5.88484C64.6106 6.6241 64.8077 7.53303 64.8077 8.61162ZM57.3257 8.61162C57.3257 9.76292 57.5536 10.6779 58.0093 11.3566C58.4773 12.0231 59.2162 12.3564 60.2261 12.3564C61.2237 12.3564 61.9565 12.0231 62.4245 11.3566C62.8925 10.6779 63.1265 9.76292 63.1265 8.61162C63.1265 7.46031 62.8925 6.55745 62.4245 5.90302C61.9565 5.24859 61.2176 4.92138 60.2077 4.92138C59.1978 4.92138 58.465 5.24859 58.0093 5.90302C57.5536 6.55745 57.3257 7.46031 57.3257 8.61162Z" fill="#191919"/>
<path d="M51.6292 13.5017H49.9665V1.95832H45.8469V0.522217H55.7304V1.95832H51.6292V13.5017Z" fill="#191919"/>
<path d="M39.4209 3.57617C39.6056 3.57617 39.8027 3.58829 40.012 3.61253C40.2214 3.62465 40.4123 3.64889 40.5847 3.68524L40.3815 5.1577C40.2214 5.12134 40.0428 5.09105 39.8458 5.06681C39.6487 5.04257 39.4701 5.03045 39.31 5.03045C38.8051 5.03045 38.3309 5.16982 37.8875 5.44856C37.4442 5.71518 37.087 6.09692 36.8161 6.5938C36.5574 7.07856 36.4281 7.64816 36.4281 8.30258V13.5016H34.8024V3.75796H36.1325L36.3173 5.53945H36.3912C36.6991 5.00621 37.1055 4.54569 37.6104 4.15788C38.1277 3.77008 38.7312 3.57617 39.4209 3.57617Z" fill="#191919"/>
<path d="M28.1989 3.57617C29.0363 3.57617 29.763 3.75796 30.3788 4.12153C30.9946 4.4851 31.4626 5.00015 31.7828 5.6667C32.1153 6.32113 32.2816 7.09068 32.2816 7.97537V8.93883H25.5017C25.5263 10.0417 25.8096 10.8839 26.3515 11.4656C26.9057 12.0352 27.6754 12.32 28.6607 12.32C29.2888 12.32 29.843 12.2655 30.3234 12.1564C30.816 12.0352 31.321 11.8656 31.8382 11.6474V13.0472C31.3333 13.2653 30.8345 13.4229 30.3418 13.5198C29.8492 13.6289 29.2642 13.6834 28.5868 13.6834C27.6385 13.6834 26.8072 13.4956 26.0928 13.1199C25.3785 12.7442 24.8181 12.1867 24.4117 11.4475C24.0176 10.7082 23.8206 9.79322 23.8206 8.70251C23.8206 7.63604 23.9991 6.72105 24.3563 5.95756C24.7258 5.19406 25.2369 4.60629 25.8896 4.19424C26.5547 3.78219 27.3244 3.57617 28.1989 3.57617ZM28.1804 4.88502C27.4045 4.88502 26.7887 5.13346 26.333 5.63034C25.8896 6.1151 25.6248 6.79377 25.5386 7.66634H30.582C30.5697 6.84224 30.3726 6.1757 29.9908 5.6667C29.609 5.14558 29.0056 4.88502 28.1804 4.88502Z" fill="#191919"/>
<path d="M21.2312 3.75781V13.5015H19.901L19.6609 12.2108H19.587C19.2668 12.7198 18.8234 13.0955 18.2569 13.3379C17.6903 13.5681 17.0868 13.6833 16.4464 13.6833C15.2518 13.6833 14.3527 13.4045 13.7492 12.8471C13.1457 12.2775 12.844 11.3746 12.844 10.1385V3.75781H14.4882V10.0294C14.4882 11.5806 15.221 12.3562 16.6866 12.3562C17.7827 12.3562 18.5401 12.0533 18.9589 11.4473C19.3899 10.8414 19.6055 9.9688 19.6055 8.82962V3.75781H21.2312Z" fill="#191919"/>
<path d="M1.16129 0.522217H4.92996C6.56798 0.522217 7.81188 0.764597 8.66168 1.24936C9.51148 1.73412 9.93638 2.56427 9.93638 3.73981C9.93638 4.50331 9.72085 5.13956 9.28979 5.64855C8.85874 6.14543 8.23678 6.46659 7.42393 6.61201V6.70291C7.97815 6.79986 8.47694 6.96347 8.92032 7.19373C9.37601 7.42399 9.73317 7.7512 9.9918 8.17537C10.2504 8.59953 10.3798 9.14489 10.3798 9.81143C10.3798 10.987 9.96717 11.8959 9.142 12.5382C8.32915 13.1805 7.21456 13.5017 5.79823 13.5017H1.16129V0.522217ZM2.82393 6.04848H5.26249C6.38324 6.04848 7.15298 5.87276 7.57172 5.5213C8.00278 5.15773 8.21831 4.6245 8.21831 3.9216C8.21831 3.20658 7.95967 2.69758 7.44241 2.3946C6.93745 2.07951 6.1246 1.92196 5.00385 1.92196H2.82393V6.04848ZM2.82393 7.41187V12.1201H5.48417C6.65419 12.1201 7.46704 11.8959 7.92273 11.4475C8.37842 10.9991 8.60626 10.4113 8.60626 9.68418C8.60626 9.00552 8.3661 8.46016 7.88578 8.04812C7.41777 7.62395 6.57413 7.41187 5.35486 7.41187H2.82393Z" fill="#191919"/>
<path d="M105.781 26.9897C106.289 26.9897 106.744 27.084 107.146 27.2725C107.558 27.461 107.908 27.7485 108.195 28.135H108.267L108.439 27.1311H109.445V34.8368C109.445 35.9208 109.162 36.7361 108.597 37.2828C108.042 37.8295 107.175 38.1029 105.996 38.1029C104.866 38.1029 103.942 37.9426 103.223 37.6221V36.4769C103.98 36.8728 104.928 37.0707 106.068 37.0707C106.729 37.0707 107.247 36.8775 107.62 36.491C108.003 36.114 108.195 35.5956 108.195 34.9358V34.6389C108.195 34.5257 108.2 34.3655 108.209 34.1581C108.219 33.9413 108.228 33.7905 108.238 33.7057H108.181C107.663 34.4692 106.868 34.8509 105.795 34.8509C104.799 34.8509 104.018 34.5069 103.453 33.8188C102.898 33.1307 102.62 32.1693 102.62 30.9345C102.62 29.728 102.898 28.7712 103.453 28.0643C104.018 27.3479 104.794 26.9897 105.781 26.9897ZM105.953 28.036C105.312 28.036 104.813 28.2905 104.459 28.7995C104.105 29.2991 103.927 30.0155 103.927 30.9486C103.927 31.8818 104.1 32.5982 104.445 33.0977C104.79 33.5879 105.302 33.8329 105.982 33.8329C106.758 33.8329 107.323 33.6303 107.678 33.225C108.032 32.8102 108.209 32.1457 108.209 31.2314V30.9345C108.209 29.9071 108.027 29.1671 107.663 28.7147C107.299 28.2622 106.729 28.036 105.953 28.036Z" fill="#F75708"/>
<path d="M100.848 26.9897C100.992 26.9897 101.145 26.9992 101.308 27.018C101.471 27.0274 101.619 27.0463 101.753 27.0746L101.595 28.2198C101.471 28.1915 101.332 28.168 101.178 28.1491C101.025 28.1303 100.886 28.1209 100.762 28.1209C100.369 28.1209 100 28.2292 99.6553 28.446C99.3105 28.6534 99.0327 28.9503 98.822 29.3368C98.6208 29.7138 98.5202 30.1568 98.5202 30.6658V34.7095H97.2558V27.1311H98.2903L98.434 28.5167H98.4915C98.731 28.102 99.0471 27.7438 99.4398 27.4422C99.8421 27.1406 100.312 26.9897 100.848 26.9897Z" fill="#F75708"/>
<path d="M95.2517 30.9062C95.2517 32.1598 94.926 33.1307 94.2747 33.8188C93.6329 34.5069 92.7612 34.8509 91.6596 34.8509C90.9795 34.8509 90.3712 34.7001 89.8348 34.3985C89.3079 34.0874 88.8912 33.6397 88.5847 33.0553C88.2782 32.4615 88.1249 31.7451 88.1249 30.9062C88.1249 29.6526 88.441 28.6864 89.0732 28.0077C89.715 27.3291 90.5915 26.9897 91.7027 26.9897C92.3924 26.9897 93.0054 27.1453 93.5419 27.4563C94.0783 27.758 94.495 28.201 94.7919 28.7854C95.0985 29.3604 95.2517 30.0673 95.2517 30.9062ZM89.4325 30.9062C89.4325 31.8017 89.6097 32.5133 89.9641 33.0412C90.3281 33.5596 90.9028 33.8188 91.6883 33.8188C92.4642 33.8188 93.0342 33.5596 93.3982 33.0412C93.7622 32.5133 93.9442 31.8017 93.9442 30.9062C93.9442 30.0107 93.7622 29.3085 93.3982 28.7995C93.0342 28.2905 92.4594 28.036 91.6739 28.036C90.8885 28.036 90.3185 28.2905 89.9641 28.7995C89.6097 29.3085 89.4325 30.0107 89.4325 30.9062Z" fill="#F75708"/>
<path d="M84.5245 33.9462C84.5245 33.5975 84.6107 33.3524 84.7832 33.2111C84.9556 33.0697 85.1615 32.999 85.401 32.999C85.6405 32.999 85.8512 33.0697 86.0332 33.2111C86.2152 33.3524 86.3062 33.5975 86.3062 33.9462C86.3062 34.2855 86.2152 34.5305 86.0332 34.6813C85.8512 34.8321 85.6405 34.9075 85.401 34.9075C85.1615 34.9075 84.9556 34.8321 84.7832 34.6813C84.6107 34.5305 84.5245 34.2855 84.5245 33.9462Z" fill="#F75708"/>
<path d="M82.7073 30.9062C82.7073 32.1598 82.3816 33.1307 81.7303 33.8188C81.0885 34.5069 80.2168 34.8509 79.1152 34.8509C78.4351 34.8509 77.8268 34.7001 77.2904 34.3985C76.7635 34.0874 76.3468 33.6397 76.0403 33.0553C75.7338 32.4615 75.5805 31.7451 75.5805 30.9062C75.5805 29.6526 75.8966 28.6864 76.5288 28.0077C77.1706 27.3291 78.0471 26.9897 79.1583 26.9897C79.848 26.9897 80.461 27.1453 80.9975 27.4563C81.5339 27.758 81.9506 28.201 82.2475 28.7854C82.5541 29.3604 82.7073 30.0673 82.7073 30.9062ZM76.888 30.9062C76.888 31.8017 77.0653 32.5133 77.4197 33.0412C77.7837 33.5596 78.3584 33.8188 79.1439 33.8188C79.9198 33.8188 80.4898 33.5596 80.8538 33.0412C81.2178 32.5133 81.3998 31.8017 81.3998 30.9062C81.3998 30.0107 81.2178 29.3085 80.8538 28.7995C80.4898 28.2905 79.915 28.036 79.1295 28.036C78.3441 28.036 77.7741 28.2905 77.4197 28.7995C77.0653 29.3085 76.888 30.0107 76.888 30.9062Z" fill="#F75708"/>
<path d="M73.9489 26.9897C74.0925 26.9897 74.2458 26.9992 74.4087 27.018C74.5715 27.0274 74.72 27.0463 74.8541 27.0746L74.696 28.2198C74.5715 28.1915 74.4326 28.168 74.2793 28.1491C74.1261 28.1303 73.9872 28.1209 73.8627 28.1209C73.4699 28.1209 73.1011 28.2292 72.7563 28.446C72.4114 28.6534 72.1336 28.9503 71.9229 29.3368C71.7217 29.7138 71.6211 30.1568 71.6211 30.6658V34.7095H70.3567V27.1311H71.3913L71.5349 28.5167H71.5924C71.8319 28.102 72.148 27.7438 72.5407 27.4422C72.9431 27.1406 73.4124 26.9897 73.9489 26.9897Z" fill="#F75708"/>
<path d="M65.2206 26.9897C65.872 26.9897 66.4372 27.1311 66.9161 27.4139C67.3951 27.6967 67.7591 28.0973 68.0081 28.6157C68.2668 29.1247 68.3961 29.7233 68.3961 30.4113V31.1607H63.1228C63.142 32.0185 63.3623 32.6736 63.7838 33.126C64.2148 33.569 64.8135 33.7905 65.5798 33.7905C66.0684 33.7905 66.4994 33.7481 66.873 33.6633C67.2562 33.569 67.6489 33.4371 68.0512 33.2674V34.3561C67.6585 34.5257 67.2705 34.6483 66.8874 34.7237C66.5042 34.8085 66.0492 34.8509 65.5224 34.8509C64.7848 34.8509 64.1382 34.7048 63.5826 34.4126C63.027 34.1204 62.5912 33.6868 62.2751 33.1119C61.9685 32.5369 61.8153 31.8252 61.8153 30.9769C61.8153 30.1474 61.9542 29.4358 62.232 28.8419C62.5193 28.2481 62.9169 27.7909 63.4246 27.4705C63.9418 27.15 64.5405 26.9897 65.2206 26.9897ZM65.2063 28.0077C64.6028 28.0077 64.1238 28.201 63.7694 28.5874C63.4246 28.9645 63.2186 29.4923 63.1516 30.171H67.0742C67.0646 29.53 66.9113 29.0116 66.6144 28.6157C66.3174 28.2104 65.8481 28.0077 65.2063 28.0077Z" fill="#F75708"/>
<path d="M54.6707 23.9641V26.5798C54.6707 26.9003 54.6612 27.2019 54.642 27.4847C54.6324 27.758 54.6181 27.9748 54.5989 28.1351H54.6707C54.8911 27.8146 55.1928 27.546 55.576 27.3292C55.9591 27.1124 56.4524 27.004 57.0559 27.004C58.0138 27.004 58.7802 27.3339 59.3549 27.9937C59.9392 28.6441 60.2314 29.6196 60.2314 30.9204C60.2314 32.2212 59.9392 33.2015 59.3549 33.8613C58.7706 34.5211 58.0043 34.851 57.0559 34.851C56.4524 34.851 55.9591 34.7426 55.576 34.5258C55.1928 34.309 54.8911 34.0498 54.6707 33.7482H54.5702L54.3115 34.7096H53.4063V23.9641H54.6707ZM56.8404 28.0361C56.0166 28.0361 55.4466 28.267 55.1305 28.7289C54.824 29.1908 54.6707 29.9071 54.6707 30.878V30.9346C54.6707 31.8677 54.824 32.5841 55.1305 33.0837C55.4466 33.5738 56.0262 33.8189 56.8691 33.8189C57.5588 33.8189 58.0713 33.5691 58.4066 33.0695C58.7514 32.5699 58.9238 31.8489 58.9238 30.9063C58.9238 28.9928 58.2294 28.0361 56.8404 28.0361Z" fill="#F75708"/>
<path d="M50.3485 24.2893C50.5401 24.2893 50.7077 24.3553 50.8514 24.4873C51.0047 24.6098 51.0813 24.8077 51.0813 25.0811C51.0813 25.3544 51.0047 25.5571 50.8514 25.6891C50.7077 25.8116 50.5401 25.8729 50.3485 25.8729C50.1377 25.8729 49.9605 25.8116 49.8168 25.6891C49.6732 25.5571 49.6013 25.3544 49.6013 25.0811C49.6013 24.8077 49.6732 24.6098 49.8168 24.4873C49.9605 24.3553 50.1377 24.2893 50.3485 24.2893ZM50.9663 27.1312V34.7096H49.7019V27.1312H50.9663Z" fill="#F75708"/>
<path d="M44.101 34.7095L41.1842 27.1311H42.5349L44.1729 31.599C44.2495 31.8063 44.3309 32.0373 44.4171 32.2918C44.5033 32.5463 44.58 32.7914 44.647 33.027C44.7141 33.2626 44.762 33.4559 44.7907 33.6067H44.8482C44.8769 33.4559 44.9296 33.2626 45.0062 33.027C45.0829 32.7819 45.1643 32.5369 45.2505 32.2918C45.3367 32.0373 45.4181 31.8063 45.4948 31.599L47.1328 27.1311H48.4834L45.5523 34.7095H44.101Z" fill="#F75708"/>
<path d="M40.3447 29.6621C40.3447 30.0957 40.292 30.5198 40.1867 30.9346C40.0909 31.3493 39.9376 31.7263 39.7269 32.0657C39.5161 32.3956 39.2575 32.6642 38.951 32.8716C38.6444 33.0695 38.2804 33.1685 37.8589 33.1685C37.4183 33.1685 37.0687 33.046 36.81 32.8009C36.561 32.5464 36.4077 32.2589 36.3502 31.9384H36.2784C36.106 32.2872 35.8521 32.5794 35.5169 32.815C35.1816 33.0507 34.7601 33.1685 34.2524 33.1685C33.5148 33.1685 32.9497 32.9281 32.5569 32.4474C32.1642 31.9667 31.9678 31.3304 31.9678 30.5387C31.9678 29.926 32.0924 29.3793 32.3414 28.8986C32.5905 28.4178 32.9401 28.0408 33.3903 27.7675C33.8501 27.4941 34.3913 27.3574 35.014 27.3574C35.4354 27.3574 35.8473 27.3951 36.2497 27.4705C36.6616 27.5365 36.9825 27.6119 37.2124 27.6968L37.0687 30.567C37.0591 30.7366 37.0543 30.8592 37.0543 30.9346C37.0543 31.0005 37.0543 31.0477 37.0543 31.076C37.0543 31.5755 37.1405 31.9054 37.3129 32.0657C37.4949 32.2165 37.7057 32.2919 37.9452 32.2919C38.2421 32.2919 38.4912 32.1741 38.6923 31.9384C38.9031 31.6933 39.0611 31.3729 39.1665 30.977C39.2814 30.5811 39.3389 30.1381 39.3389 29.6479C39.3389 28.7807 39.1569 28.0408 38.7929 27.4281C38.4385 26.8154 37.9452 26.3489 37.3129 26.0284C36.6903 25.7079 35.9815 25.5477 35.1864 25.5477C34.0944 25.5477 33.17 25.7692 32.4133 26.2122C31.6661 26.6552 31.0961 27.2679 30.7034 28.0502C30.3202 28.8232 30.1287 29.7092 30.1287 30.7083C30.1287 32.1034 30.5022 33.1732 31.2494 33.9179C31.9966 34.6625 33.0742 35.0348 34.4823 35.0348C35.0667 35.0348 35.6222 34.9688 36.1491 34.8369C36.6855 34.7143 37.1597 34.5777 37.5716 34.4269V35.3883C37.1597 35.558 36.6951 35.6946 36.1778 35.7983C35.6701 35.9114 35.105 35.968 34.4823 35.968C33.352 35.968 32.3845 35.7606 31.5799 35.3459C30.7752 34.9311 30.1574 34.3373 29.7263 33.5644C29.3049 32.782 29.0941 31.8442 29.0941 30.7508C29.0941 29.8741 29.233 29.0635 29.5108 28.3189C29.7886 27.5648 30.1909 26.9144 30.7178 26.3677C31.2446 25.8116 31.8816 25.3827 32.6288 25.0811C33.3855 24.77 34.2381 24.6145 35.1864 24.6145C36.1826 24.6145 37.0687 24.8172 37.8446 25.2225C38.6205 25.6278 39.2288 26.2075 39.6694 26.9615C40.1196 27.7156 40.3447 28.6158 40.3447 29.6621ZM33.0886 30.567C33.0886 31.1796 33.2083 31.6227 33.4478 31.896C33.6873 32.1599 34.0177 32.2919 34.4392 32.2919C34.9757 32.2919 35.3588 32.0939 35.5887 31.6981C35.8282 31.3022 35.9671 30.7885 36.0054 30.1569L36.0916 28.3896C35.9671 28.3519 35.809 28.3189 35.6174 28.2906C35.4259 28.2623 35.2295 28.2482 35.0283 28.2482C34.559 28.2482 34.1806 28.3613 33.8932 28.5875C33.6058 28.8137 33.3999 29.1059 33.2754 29.4641C33.1508 29.8129 33.0886 30.1805 33.0886 30.567Z" fill="#F75708"/>
<path d="M27.0422 34.7096H25.7777V23.9641H27.0422V34.7096Z" fill="#F75708"/>
<path d="M22.7199 24.2893C22.9115 24.2893 23.0791 24.3553 23.2228 24.4873C23.376 24.6098 23.4527 24.8077 23.4527 25.0811C23.4527 25.3544 23.376 25.5571 23.2228 25.6891C23.0791 25.8116 22.9115 25.8729 22.7199 25.8729C22.5091 25.8729 22.3319 25.8116 22.1882 25.6891C22.0446 25.5571 21.9727 25.3544 21.9727 25.0811C21.9727 24.8077 22.0446 24.6098 22.1882 24.4873C22.3319 24.3553 22.5091 24.2893 22.7199 24.2893ZM23.3377 27.1312V34.7096H22.0733V27.1312H23.3377Z" fill="#F75708"/>
<path d="M16.9359 27.0039C17.8747 27.0039 18.5691 27.2066 19.0193 27.6119C19.4696 28.0172 19.6947 28.6629 19.6947 29.5489V34.7096H18.7751L18.5308 33.635H18.4733C18.1381 34.0498 17.7837 34.3561 17.4101 34.554C17.0365 34.752 16.5288 34.851 15.887 34.851C15.1877 34.851 14.6082 34.6719 14.1484 34.3137C13.6886 33.9461 13.4587 33.3758 13.4587 32.6029C13.4587 31.8488 13.7604 31.2691 14.3639 30.8638C14.9674 30.4491 15.8966 30.2228 17.1514 30.1851L18.459 30.1427V29.6903C18.459 29.0588 18.3201 28.6204 18.0423 28.3754C17.7645 28.1303 17.3718 28.0078 16.8641 28.0078C16.4617 28.0078 16.0786 28.069 15.7146 28.1916C15.3506 28.3047 15.0105 28.4366 14.6944 28.5875L14.3065 27.6543C14.6417 27.4752 15.0393 27.3244 15.499 27.2019C15.9588 27.0699 16.4378 27.0039 16.9359 27.0039ZM18.4446 31.0052L17.3095 31.0476C16.3516 31.0853 15.6858 31.2361 15.3123 31.5001C14.9483 31.764 14.7663 32.1363 14.7663 32.617C14.7663 33.0412 14.8956 33.3522 15.1542 33.5502C15.4224 33.7481 15.7625 33.8471 16.1744 33.8471C16.8162 33.8471 17.3526 33.6727 17.7837 33.324C18.2243 32.9658 18.4446 32.4191 18.4446 31.6839V31.0052Z" fill="#F75708"/>
<path d="M9.03939 26.9897C9.91108 26.9897 10.5625 27.2113 10.9935 27.6543C11.4246 28.0973 11.6401 28.8042 11.6401 29.7751V34.7095H10.39V29.8317C10.39 28.6346 9.86798 28.036 8.82386 28.036C8.0767 28.036 7.54027 28.2481 7.21458 28.6723C6.89847 29.0964 6.74042 29.7138 6.74042 30.5245V34.7095H5.49035V29.8317C5.49035 28.6346 4.9635 28.036 3.90981 28.036C3.13391 28.036 2.59748 28.2717 2.30053 28.743C2.00358 29.2143 1.8551 29.8929 1.8551 30.779V34.7095H0.590668V27.1311H1.61084L1.79763 28.1633H1.86947C2.10895 27.7674 2.42985 27.4752 2.83217 27.2867C3.24406 27.0887 3.67991 26.9897 4.13971 26.9897C5.34667 26.9897 6.13215 27.4139 6.49615 28.2622H6.568C6.82663 27.8286 7.17626 27.5082 7.6169 27.3008C8.05754 27.0934 8.5317 26.9897 9.03939 26.9897Z" fill="#F75708"/>
<path d="M34.7439 45.1401C34.8342 45.1401 34.9409 45.1442 35.0641 45.1523C35.1872 45.1603 35.2858 45.1725 35.3597 45.1886L35.2242 46.8853C35.1585 46.8691 35.0723 46.857 34.9656 46.8489C34.8588 46.8328 34.7644 46.8247 34.6823 46.8247C34.3703 46.8247 34.0706 46.8812 33.7832 46.9943C33.4959 47.0994 33.2619 47.2731 33.0812 47.5155C32.9088 47.7578 32.8226 48.0891 32.8226 48.5092V51.8783H30.9875V45.2613H32.3792L32.6502 46.3763H32.7364C32.9334 46.0369 33.2044 45.7461 33.5492 45.5037C33.8941 45.2613 34.2923 45.1401 34.7439 45.1401Z" fill="#F75708"/>
<path d="M26.4821 45.1401C27.4099 45.1401 28.1447 45.4027 28.6866 45.9279C29.2285 46.4449 29.4995 47.1842 29.4995 48.1456V49.0182H25.1643C25.1807 49.5272 25.3326 49.9271 25.62 50.218C25.9155 50.5089 26.322 50.6543 26.8392 50.6543C27.2662 50.6543 27.6562 50.6139 28.0092 50.5331C28.3705 50.4442 28.74 50.3109 29.1177 50.1332V51.5269C28.781 51.6884 28.4321 51.8056 28.0708 51.8783C27.7096 51.9591 27.2703 51.9995 26.753 51.9995C26.0798 51.9995 25.4845 51.8783 24.9672 51.6359C24.4499 51.3855 24.0435 51.0138 23.7479 50.521C23.4524 50.0201 23.3046 49.3858 23.3046 48.6183C23.3046 47.8508 23.4359 47.2084 23.6987 46.6914C23.9696 46.1743 24.3432 45.7865 24.8194 45.5279C25.2956 45.2694 25.8499 45.1401 26.4821 45.1401ZM26.4944 46.4248C26.1331 46.4248 25.8375 46.5379 25.6076 46.7641C25.3777 46.9903 25.2423 47.3418 25.2012 47.8184H27.7752C27.767 47.4225 27.6562 47.0913 27.4427 46.8247C27.2374 46.5581 26.9213 46.4248 26.4944 46.4248Z" fill="#F75708"/>
<path d="M15.7385 45.2615H17.746L19.0145 48.982C19.0802 49.1678 19.1295 49.3537 19.1623 49.5395C19.1952 49.7253 19.2198 49.9233 19.2362 50.1333H19.2732C19.2978 49.9233 19.3306 49.7253 19.3717 49.5395C19.4127 49.3537 19.4661 49.1678 19.5318 48.982L20.7757 45.2615H22.7463L19.9013 52.7268C19.6385 53.4135 19.265 53.9266 18.7805 54.2659C18.2961 54.6133 17.7337 54.787 17.0932 54.787C16.8798 54.787 16.6991 54.7749 16.5513 54.7507C16.4036 54.7345 16.2722 54.7143 16.1572 54.6901V53.26C16.2393 53.2762 16.3461 53.2923 16.4774 53.3085C16.6088 53.3246 16.7443 53.3327 16.8839 53.3327C17.2698 53.3327 17.5736 53.2156 17.7953 52.9813C18.0169 52.7551 18.1853 52.4804 18.3002 52.1572L18.4111 51.83L15.7385 45.2615Z" fill="#F75708"/>
<path d="M14.775 45.2615V51.8784H13.371L13.1247 51.0301H13.0262C12.8127 51.3695 12.5171 51.6159 12.1394 51.7694C11.7699 51.9229 11.3758 51.9996 10.9571 51.9996C10.2346 51.9996 9.6557 51.8098 9.22054 51.43C8.78538 51.0422 8.56779 50.4242 8.56779 49.5758V45.2615H10.4029V49.1274C10.4029 49.6041 10.4891 49.9636 10.6615 50.206C10.8339 50.4403 11.109 50.5575 11.4867 50.5575C12.045 50.5575 12.4268 50.3717 12.6321 50C12.8373 49.6203 12.9399 49.079 12.9399 48.3761V45.2615H14.775Z" fill="#F75708"/>
<path d="M0.477753 43.2253H3.21189C4.37779 43.2253 5.26044 43.3869 5.85981 43.7101C6.4674 44.0333 6.77119 44.6029 6.77119 45.4189C6.77119 45.9117 6.65214 46.3278 6.41403 46.6671C6.18413 47.0065 5.8516 47.2125 5.41644 47.2852V47.3458C5.70381 47.4104 5.96655 47.5155 6.20466 47.6609C6.45098 47.7982 6.64393 48.0043 6.78351 48.279C6.92309 48.5537 6.99288 48.9172 6.99288 49.3697C6.99288 50.1534 6.7014 50.7674 6.11845 51.2118C5.5437 51.6561 4.75959 51.8783 3.7661 51.8783H0.477753V43.2253ZM2.33746 46.655H3.42126C3.96316 46.655 4.33674 46.5742 4.54201 46.4126C4.75548 46.243 4.86222 45.9925 4.86222 45.6613C4.86222 45.33 4.73906 45.0917 4.49274 44.9462C4.24643 44.8008 3.85642 44.7281 3.32273 44.7281H2.33746V46.655ZM2.33746 48.1093V50.3634H3.55673C4.11506 50.3634 4.50506 50.2584 4.72675 50.0483C4.94843 49.8302 5.05928 49.5434 5.05928 49.1879C5.05928 48.8647 4.94433 48.6062 4.71443 48.4123C4.49274 48.2103 4.08632 48.1093 3.49515 48.1093H2.33746Z" fill="#F75708"/>
</svg>
